<svg width="24" height="24" viewBox="0 0 24 24" fill="none" xmlns="http://www.w3.org/2000/svg">
<path fill-rule="evenodd" clip-rule="evenodd" d="M2 12.0007C2 17.5197 6.48 22.0007 12 22.0007C17.53 22.0007 22 17.5197 22 12.0007C22 6.4797 17.53 2.0007 12 2.0007C6.48 2.0007 2 6.4797 2 12.0007ZM11.12 15.7907C11.12 16.2697 11.52 16.6707 12 16.6707C12.48 16.6707 12.87 16.2697 12.87 15.7907V11.3707C12.87 10.8897 12.48 10.5007 12 10.5007C11.52 10.5007 11.12 10.8897 11.12 11.3707V15.7907ZM12.01 7.3197C11.52 7.3197 11.13 7.7197 11.13 8.1997C11.13 8.6797 11.52 9.0697 12 9.0697C12.49 9.0697 12.88 8.6797 12.88 8.1997C12.88 7.7197 12.49 7.3197 12.01 7.3197Z" fill="#FF844C"/>
</svg>
