<svg width="20" height="18" viewBox="0 0 20 18" fill="none" xmlns="http://www.w3.org/2000/svg">
<path fill-rule="evenodd" clip-rule="evenodd" d="M7.64676 0H12.3532C13.3399 0.00688277 14.1172 0.519533 14.568 1.40741C14.6327 1.53408 14.7098 1.68984 14.8026 1.88122L15.4459 3.23377C15.4812 3.30828 15.5557 3.35544 15.6576 3.3557L15.869 3.36147C18.1799 3.48224 20 5.39225 20 7.71285V13.6426C20 16.0486 18.0469 18 15.638 18H4.363C1.95329 18 0 16.0488 0 13.6426V7.71285C0 5.30599 1.95297 3.35544 4.31516 3.35697L4.39001 3.35373C4.46133 3.34457 4.52408 3.2992 4.55477 3.23442L5.04599 2.19771L5.43153 1.40842C5.88453 0.518935 6.66055 0.00687968 7.64676 0ZM12.348 1.4984L7.65724 1.49838C7.24994 1.50122 6.97475 1.68281 6.76859 2.08761C6.70839 2.20593 6.63472 2.35533 6.54482 2.54115L5.91093 3.8747C5.66082 4.40266 5.15855 4.76583 4.53341 4.84451L4.363 4.85386C2.78134 4.85386 1.5 6.1336 1.5 7.71285V13.6426C1.5 15.2212 2.78171 16.5016 4.363 16.5016H15.638C17.2184 16.5016 18.5 15.2211 18.5 13.6426V7.71285C18.5 6.19038 17.3056 4.93702 15.8103 4.85861L15.4863 4.84717C14.8846 4.7939 14.3514 4.42641 14.0898 3.87405L13.3912 2.40843L13.2311 2.08701C13.026 1.68303 12.7504 1.50123 12.348 1.4984ZM6.07162 10.3288C6.05419 8.17753 7.83314 6.39237 10.0045 6.39483L10.2064 6.40019C12.2798 6.50809 13.9322 8.23126 13.9286 10.331C13.9249 12.4909 12.163 14.2521 10.002 14.2545C7.83726 14.2558 6.07036 12.4873 6.07162 10.3288ZM12.4286 10.3284C12.4309 8.98843 11.3406 7.89478 10.0027 7.89325L9.84334 7.89834C8.57796 7.98068 7.56132 9.05211 7.5716 10.3231C7.57084 11.6606 8.66615 12.7569 10.0007 12.7561C11.3341 12.7546 12.4263 11.6629 12.4286 10.3284ZM14.6038 7.90769C14.7107 7.95066 14.8061 7.97584 14.9027 7.98575L15.0002 7.99065L15.0994 7.98575C15.3291 7.96298 15.5444 7.8616 15.7083 7.69673C15.898 7.49546 16.0002 7.25365 16.0002 6.99219C16.0002 6.85607 15.9723 6.72115 15.9171 6.59707L15.8944 6.5387C15.8559 6.45638 15.7867 6.35876 15.7045 6.27787C15.4303 6.00405 14.9915 5.9168 14.6226 6.06282C14.4982 6.11756 14.4072 6.17975 14.3184 6.25704C14.2016 6.37065 14.137 6.47511 14.0825 6.59893C14.0281 6.72115 14.0002 6.85607 14.0002 6.99219C14.0002 7.24846 14.1037 7.49688 14.2825 7.68683C14.382 7.78782 14.4849 7.85493 14.6038 7.90769Z" fill="#777777"/>
</svg>
