<svg width="10" height="15" viewBox="0 0 10 15" fill="none" xmlns="http://www.w3.org/2000/svg">
<path d="M9.0133 4.52328C9.0133 2.02912 6.99908 0 4.52328 0C2.04076 0 0 2.04143 0 4.52328C0 6.83172 1.76415 8.73855 4.02439 8.98586V12.0067H2.52772C2.25219 12.0067 2.02882 12.23 2.02882 12.5055C2.02882 12.7811 2.25219 13.0044 2.52772 13.0044H4.02439V14.5011C4.02439 14.7766 4.24776 15 4.52328 15C4.7988 15 5.02217 14.7766 5.02217 14.5011V13.0044H6.51885C6.79437 13.0044 7.01774 12.7811 7.01774 12.5055C7.01774 12.23 6.79437 12.0067 6.51885 12.0067H5.02217V8.98543C7.26406 8.73645 9.0133 6.83045 9.0133 4.52328ZM0.997783 4.52328C0.997783 2.5793 2.57933 0.997783 4.52328 0.997783C6.4489 0.997783 8.01552 2.5793 8.01552 4.52328C8.01552 6.4489 6.4489 8.01552 4.52328 8.01552C2.57933 8.01552 0.997783 6.4489 0.997783 4.52328Z" fill="#1F7D9D"/>
</svg>
