<svg width="335" height="232" viewBox="0 0 335 232" fill="none" xmlns="http://www.w3.org/2000/svg">
<path d="M64.3646 49.8047C74.8997 49.8047 83.4402 41.2592 83.4402 30.7178C83.4402 20.1764 74.8997 11.6309 64.3646 11.6309C53.8294 11.6309 45.2889 20.1764 45.2889 30.7178C45.2889 41.2592 53.8294 49.8047 64.3646 49.8047Z" fill="#087766"/>
<path d="M157.175 102.33C157.175 147.367 130.417 163.092 97.4096 163.092C64.4024 163.092 37.6447 147.367 37.6447 102.33C37.6447 57.2936 97.4096 0 97.4096 0C97.4096 0 157.175 57.2936 157.175 102.33Z" fill="#F2F2F2"/>
<path d="M95.2325 156.203L95.8447 118.511L121.318 71.8813L95.9407 112.598L96.2158 95.6507L113.772 61.9146L96.2885 91.1659L96.7833 60.6847L115.583 33.8265L96.8614 55.8915L97.1704 0L95.2271 73.9904L95.3869 70.9379L76.2734 41.6643L95.0805 76.7973L93.2996 110.839L93.2465 109.936L71.2118 79.1298L93.1798 113.128L92.9571 117.385L92.9172 117.449L92.9354 117.799L88.4171 204.167H94.454L95.1782 159.556L117.092 125.641L95.2325 156.203Z" fill="#3F3D56"/>
<path d="M335 120.776C335 157.64 313.098 170.512 286.08 170.512C259.062 170.512 237.159 157.64 237.159 120.776C237.159 83.9112 286.08 37.0137 286.08 37.0137C286.08 37.0137 335 83.9112 335 120.776Z" fill="#F2F2F2"/>
<path d="M284.297 164.873L284.798 134.021L305.649 95.852L284.877 129.181L285.102 115.308L299.473 87.6936L285.162 111.637L285.567 86.687L300.955 64.7022L285.63 82.7638L285.884 37.0137L284.293 97.5782L284.424 95.0799L268.778 71.1178L284.173 99.8761L282.715 127.741L282.672 127.002L264.635 101.785L282.617 129.614L282.435 133.099L282.402 133.152L282.417 133.438L278.718 204.134H283.66L284.253 167.618L302.19 139.857L284.297 164.873Z" fill="#3F3D56"/>
<path d="M165.3 211.722C256.593 211.722 330.6 207.978 330.6 203.361C330.6 198.743 256.593 195 165.3 195C74.0073 195 0 198.743 0 203.361C0 207.978 74.0073 211.722 165.3 211.722Z" fill="#087766"/>
<path d="M266.999 218.186C282.635 218.186 295.311 217.545 295.311 216.754C295.311 215.963 282.635 215.322 266.999 215.322C251.363 215.322 238.687 215.963 238.687 216.754C238.687 217.545 251.363 218.186 266.999 218.186Z" fill="#087766"/>
<path d="M164.55 232C180.186 232 192.862 231.359 192.862 230.568C192.862 229.777 180.186 229.136 164.55 229.136C148.913 229.136 136.238 229.777 136.238 230.568C136.238 231.359 148.913 232 164.55 232Z" fill="#087766"/>
<path d="M86.8237 222.258C122.547 222.258 151.506 220.793 151.506 218.986C151.506 217.179 122.547 215.714 86.8237 215.714C51.1005 215.714 22.1411 217.179 22.1411 218.986C22.1411 220.793 51.1005 222.258 86.8237 222.258Z" fill="#087766"/>
<path d="M29.9365 192.441C42.9409 192.441 53.483 181.892 53.483 168.88C53.483 155.868 42.9409 145.32 29.9365 145.32C16.9321 145.32 6.39001 155.868 6.39001 168.88C6.39001 181.892 16.9321 192.441 29.9365 192.441Z" fill="#2F2E41"/>
<path d="M26.1424 187.327L18.9895 187.243L18.8385 200.066L25.9914 200.151L26.1424 187.327Z" fill="#2F2E41"/>
<path d="M40.448 187.496L33.2952 187.412L33.1442 200.235L40.297 200.319L40.448 187.496Z" fill="#2F2E41"/>
<path d="M30.7581 200.356C30.7726 199.12 28.1157 198.088 24.8237 198.049C21.5317 198.01 18.8512 198.98 18.8366 200.215C18.8221 201.45 21.479 202.483 24.771 202.522C28.063 202.561 30.7435 201.591 30.7581 200.356Z" fill="#2F2E41"/>
<path d="M45.0674 200.226C45.0819 198.991 42.425 197.958 39.133 197.919C35.841 197.881 33.1605 198.85 33.146 200.086C33.1314 201.321 35.7883 202.354 39.0803 202.393C42.3724 202.431 45.0529 201.461 45.0674 200.226Z" fill="#2F2E41"/>
<path d="M30.6027 170.975C35.0472 170.975 38.6502 167.37 38.6502 162.923C38.6502 158.476 35.0472 154.871 30.6027 154.871C26.1582 154.871 22.5552 158.476 22.5552 162.923C22.5552 167.37 26.1582 170.975 30.6027 170.975Z" fill="white"/>
<path d="M30.6028 165.607C32.0843 165.607 33.2853 164.405 33.2853 162.923C33.2853 161.44 32.0843 160.239 30.6028 160.239C29.1213 160.239 27.9203 161.44 27.9203 162.923C27.9203 164.405 29.1213 165.607 30.6028 165.607Z" fill="#3F3D56"/>
<path d="M7.35507 146.702C5.55426 138.161 11.7328 129.624 21.1552 127.635C30.5777 125.646 39.6759 130.958 41.4767 139.5C43.2776 148.041 37.0124 151.11 27.5899 153.099C18.1675 155.088 9.15589 155.244 7.35507 146.702Z" fill="#FF844C"/>
<path d="M65.8548 182.024C65.8548 198.45 56.0964 204.185 44.0579 204.185C43.779 204.185 43.5006 204.182 43.2226 204.175C42.6648 204.163 42.1123 204.137 41.5665 204.1C30.7019 203.33 22.261 197.3 22.261 182.024C22.261 166.215 42.451 146.267 43.9676 144.791L43.9702 144.788C44.0287 144.731 44.0579 144.703 44.0579 144.703C44.0579 144.703 65.8548 165.599 65.8548 182.024Z" fill="#FF844C"/>
<path d="M43.2638 201.672L51.2359 190.526L43.2439 202.896L43.2226 204.175C42.6649 204.163 42.1124 204.137 41.5666 204.1L42.4258 187.666L42.4192 187.539L42.4338 187.515L42.5148 185.963L34.5028 173.562L42.54 184.799L42.5586 185.128L43.208 172.712L36.3488 159.898L43.2917 170.533L43.9676 144.791L43.9703 144.703V144.788L43.8574 165.087L50.6861 157.04L43.8295 166.836L43.6489 177.953L50.0248 167.284L43.6224 179.588L43.5215 185.769L52.7778 170.919L43.4869 187.925L43.2638 201.672Z" fill="#3F3D56"/>
<path d="M213.361 192.186C226.365 192.186 236.907 181.637 236.907 168.625C236.907 155.613 226.365 145.065 213.361 145.065C200.357 145.065 189.814 155.613 189.814 168.625C189.814 181.637 200.357 192.186 213.361 192.186Z" fill="#2F2E41"/>
<path d="M215.371 187.351L208.533 189.454L212.298 201.712L219.136 199.61L215.371 187.351Z" fill="#2F2E41"/>
<path d="M229.046 183.147L222.208 185.25L225.973 197.508L232.811 195.406L229.046 183.147Z" fill="#2F2E41"/>
<path d="M218.697 202.241C221.844 201.273 224.101 199.531 223.738 198.35C223.375 197.17 220.53 196.997 217.383 197.965C214.236 198.932 211.979 200.674 212.342 201.855C212.704 203.036 215.55 203.208 218.697 202.241Z" fill="#2F2E41"/>
<path d="M232.284 197.75C235.431 196.782 237.689 195.041 237.326 193.86C236.963 192.679 234.118 192.506 230.971 193.474C227.824 194.442 225.567 196.183 225.93 197.364C226.292 198.545 229.137 198.718 232.284 197.75Z" fill="#2F2E41"/>
<path d="M212.18 170.801C216.624 170.801 220.227 167.196 220.227 162.749C220.227 158.301 216.624 154.696 212.18 154.696C207.735 154.696 204.132 158.301 204.132 162.749C204.132 167.196 207.735 170.801 212.18 170.801Z" fill="white"/>
<path d="M212.18 165.433C213.661 165.433 214.862 164.231 214.862 162.749C214.862 161.266 213.661 160.064 212.18 160.064C210.698 160.064 209.497 161.266 209.497 162.749C209.497 164.231 210.698 165.433 212.18 165.433Z" fill="#3F3D56"/>
<path d="M185.095 154.395C180.776 146.81 184.058 136.795 192.426 132.025C200.793 127.255 211.077 129.538 215.395 137.123C219.714 144.708 214.683 149.542 206.316 154.312C197.948 159.081 189.414 161.98 185.095 154.395Z" fill="#FF844C"/>
<path d="M171.367 179.016C171.367 194.094 162.409 199.359 151.358 199.359C151.102 199.359 150.847 199.356 150.592 199.35C150.08 199.339 149.572 199.315 149.071 199.281C139.098 198.574 131.35 193.039 131.35 179.016C131.35 164.504 149.883 146.193 151.276 144.838L151.278 144.835C151.332 144.783 151.358 144.757 151.358 144.757C151.358 144.757 171.367 163.938 171.367 179.016Z" fill="#FF844C"/>
<path d="M150.629 197.052L157.947 186.82L150.611 198.175L150.592 199.35C150.08 199.339 149.572 199.315 149.071 199.281L149.86 184.195L149.854 184.078L149.867 184.056L149.942 182.632L142.587 171.249L149.965 181.563L149.982 181.866L150.578 170.468L144.282 158.706L150.655 168.468L151.275 144.838L151.278 144.757V144.835L151.174 163.469L157.443 156.082L151.149 165.074L150.983 175.279L156.836 165.485L150.958 176.78L150.866 182.454L159.363 168.823L150.834 184.433L150.629 197.052Z" fill="#3F3D56"/>
<path d="M250.054 185.304C250.054 201.73 240.296 207.465 228.257 207.465C227.978 207.465 227.7 207.462 227.422 207.456C226.864 207.444 226.311 207.417 225.766 207.38C214.901 206.611 206.46 200.58 206.46 185.304C206.46 169.496 226.65 149.547 228.167 148.071L228.169 148.068C228.228 148.011 228.257 147.983 228.257 147.983C228.257 147.983 250.054 168.879 250.054 185.304Z" fill="#FF844C"/>
<path d="M227.463 204.952L235.435 193.806L227.443 206.176L227.422 207.456C226.864 207.444 226.311 207.417 225.766 207.38L226.625 190.946L226.618 190.819L226.633 190.795L226.714 189.243L218.702 176.842L226.739 188.079L226.758 188.408L227.407 175.992L220.548 163.178L227.491 173.813L228.167 148.071L228.169 147.983V148.068L228.057 168.367L234.885 160.32L228.029 170.116L227.848 181.233L234.224 170.564L227.821 182.869L227.721 189.049L236.977 174.199L227.686 191.206L227.463 204.952Z" fill="#3F3D56"/>
<path d="M214.856 182.73C215.731 180.884 211.678 177.128 205.803 174.34C199.928 171.552 194.456 170.788 193.582 172.633C192.707 174.479 196.76 178.235 202.635 181.023C208.51 183.811 213.982 184.575 214.856 182.73Z" fill="#2F2E41"/>
<path d="M33.6306 180.573C34.39 178.677 30.1129 175.178 24.0775 172.757C18.0421 170.337 12.5338 169.911 11.7744 171.807C11.0149 173.703 15.292 177.202 21.3274 179.622C27.3628 182.043 32.8711 182.468 33.6306 180.573Z" fill="#2F2E41"/>
</svg>
