<svg width="30" height="30" viewBox="0 0 30 30" fill="none" xmlns="http://www.w3.org/2000/svg">
<g opacity="0.5">
<path d="M15 30C23.2843 30 30 23.2843 30 15C30 6.71573 23.2843 0 15 0C6.71573 0 0 6.71573 0 15C0 23.2843 6.71573 30 15 30Z" fill="#262626"/>
<path d="M22.299 6.79761H7.70138C7.46175 6.79761 7.23193 6.8928 7.06249 7.06225C6.89304 7.23169 6.79785 7.46151 6.79785 7.70114V22.2988C6.79785 22.5384 6.89304 22.7682 7.06249 22.9377C7.23193 23.1071 7.46175 23.2023 7.70138 23.2023H15.5614V16.8494H13.412V14.3788H15.5508V12.547C15.5508 10.4294 16.8426 9.27525 18.7273 9.27525C19.3651 9.27233 20.0026 9.30532 20.6367 9.37408V11.587H19.3449C18.3143 11.587 18.1167 12.0776 18.1167 12.7941V14.3753H20.5873L20.2661 16.8458H18.1484V23.1988H22.299C22.5387 23.1988 22.7685 23.1036 22.9379 22.9341C23.1074 22.7647 23.2026 22.5349 23.2026 22.2952V7.70114C23.2026 7.46151 23.1074 7.23169 22.9379 7.06225C22.7685 6.8928 22.5387 6.79761 22.299 6.79761Z" fill="white"/>
</g>
</svg>
