<svg width="16" height="16" viewBox="0 0 16 16" fill="none" xmlns="http://www.w3.org/2000/svg">
<path fill-rule="evenodd" clip-rule="evenodd" d="M10.8875 0.875608C11.3608 0.875608 11.8333 0.942358 12.2825 1.09311C15.0508 1.99311 16.0483 5.03061 15.215 7.68561C14.7425 9.04236 13.97 10.2806 12.9583 11.2924C11.51 12.6949 9.92076 13.9399 8.21001 15.0124L8.02251 15.1256L7.82751 15.0049C6.11076 13.9399 4.51251 12.6949 3.05076 11.2849C2.04576 10.2731 1.27251 9.04236 0.792512 7.68561C-0.0549875 5.03061 0.942513 1.99311 3.74076 1.07736C3.95826 1.00236 4.18251 0.949858 4.40751 0.920608H4.49751C4.70826 0.889858 4.91751 0.875608 5.12751 0.875608H5.21001C5.68251 0.889858 6.14001 0.972358 6.58326 1.12311H6.62751C6.65751 1.13736 6.68001 1.15311 6.69501 1.16736C6.86076 1.22061 7.01751 1.28061 7.16751 1.36311L7.45251 1.49061C7.52138 1.52734 7.59868 1.58346 7.66548 1.63196C7.70781 1.66269 7.74592 1.69036 7.77501 1.70811C7.78725 1.71533 7.79969 1.72259 7.81223 1.72991C7.87654 1.76745 7.94353 1.80655 8.00001 1.84986C8.83326 1.21311 9.84501 0.868108 10.8875 0.875608ZM12.8826 6.27561C13.1901 6.26736 13.4526 6.02061 13.4751 5.70486V5.61561C13.4976 4.56486 12.8608 3.61311 11.8926 3.24561C11.5851 3.13986 11.2476 3.30561 11.1351 3.62061C11.0301 3.93561 11.1951 4.28061 11.5101 4.39236C11.9908 4.57236 12.3126 5.04561 12.3126 5.56986V5.59311C12.2983 5.76486 12.3501 5.93061 12.4551 6.05811C12.5601 6.18561 12.7176 6.25986 12.8826 6.27561Z" fill="#FF844C"/>
</svg>
