<svg width="375" height="316" viewBox="0 0 375 316" fill="none" xmlns="http://www.w3.org/2000/svg">
<mask id="mask0" mask-type="alpha" maskUnits="userSpaceOnUse" x="226" y="176" width="133" height="145">
<path fill-rule="evenodd" clip-rule="evenodd" d="M226.152 320.675L226.152 176.849L358.925 176.849V320.675H226.152Z" fill="white"/>
</mask>
<g mask="url(#mask0)">
<path fill-rule="evenodd" clip-rule="evenodd" d="M226.152 339.648V268.292C226.152 254.401 226.882 240.668 227.189 226.832C227.323 220.803 225.149 211.765 228.698 206.925C232.166 202.197 243.466 200.127 248.467 197.359C254.937 193.778 260.888 189.362 267.394 185.93C271.336 183.849 279.734 176.931 283.7 176.85C289.478 176.73 298.801 185.191 304.354 187.74C318.785 194.364 335.302 201.204 350.424 204.968C351.514 225.754 353.751 246.747 353.691 267.584C353.66 278.299 354.639 288.617 355.764 299.06C356.938 309.943 355.403 323.97 358.925 334.344C350.069 334.901 339.991 329.47 331.488 327.725C324.352 326.26 317.269 325.091 309.881 324.095C282.488 320.403 258.362 341.053 226.152 339.648Z" fill="#008B75"/>
</g>
<path fill-rule="evenodd" clip-rule="evenodd" d="M18.4248 194.832C32.5619 216.944 41.8351 244.349 57.8635 265.198C65.1306 274.65 71.1395 274.693 82.6851 274.674C96.4277 274.652 110.666 273.938 124.015 270.523C140.286 266.359 141.833 261.895 141.815 245.644C141.797 227.953 142.483 210.376 143.902 192.847C144.555 184.763 148.951 163.284 143.777 156.525C136.645 147.208 98.675 149.702 87.6462 148.148C77.0447 146.654 61.1913 141.369 50.4909 142.964C37.6311 144.881 22.715 173.772 18.4248 194.832Z" fill="#FFD200"/>
<mask id="mask1" mask-type="alpha" maskUnits="userSpaceOnUse" x="43" y="215" width="122" height="106">
<path fill-rule="evenodd" clip-rule="evenodd" d="M43.6431 320.675L43.6431 215.395H164.976V320.675H43.6431Z" fill="white"/>
</mask>
<g mask="url(#mask1)">
<path fill-rule="evenodd" clip-rule="evenodd" d="M164.976 335.501C164.865 315.205 162.076 293.925 160.742 273.571C160.242 265.954 158.483 258.45 157.925 250.82C157.473 244.662 161.029 227.165 157.791 222.196C149.718 209.804 128.347 216.929 119.597 223.274C100.216 237.328 83.2119 253.986 65.638 270.2C61.3562 274.151 54.3345 279.385 51.9114 284.703C48.9982 291.098 49.2377 302.921 48.0609 309.744C46.183 320.628 43.4122 331.653 43.6584 342.759C55.869 343.68 75.3551 339.42 87.6135 337.735C105.547 335.271 124.407 332.627 142.325 331.336C150.553 330.743 157.017 333.825 164.976 335.501Z" fill="#40A8C4"/>
</g>
<mask id="mask2" mask-type="alpha" maskUnits="userSpaceOnUse" x="292" y="23" width="116" height="240">
<path fill-rule="evenodd" clip-rule="evenodd" d="M292.047 262.38L292.047 23.2095L407.19 23.2095L407.19 262.38H292.047Z" fill="white"/>
</mask>
<g mask="url(#mask2)">
<path d="M418.434 262.38C413.061 248.846 393.667 242.362 381.381 237.605C364.484 231.063 367.4 209.932 354.577 198.62C349.735 194.35 346.145 189.12 341.688 184.348C335.043 177.234 327.695 170.853 320.872 163.916C316.745 159.719 311.579 156.894 307.422 152.971C300.861 146.776 297.306 133.616 295.761 124.782C293.924 114.282 294.188 103.673 292.95 93.1416C292.434 88.7642 291.469 84.696 292.512 80.4175C293.594 75.9757 296.83 72.7157 299.698 69.4223C305.238 63.059 309.037 62.8286 316.412 59.6742C329.308 54.1577 328.977 36.5219 340.679 30.301C346.134 27.4012 354.119 27.0327 360.133 25.0551C364.822 23.5131 367.881 23.085 372.47 23.8824C379.887 25.1715 383.888 25.3307 391.257 23.9838C398.093 22.7332 403.815 22.8505 410.303 25.4278C416.074 27.7195 420.799 31.9511 426.689 33.8248" stroke="#C07D53" stroke-width="0.25"/>
</g>
<mask id="mask3" mask-type="alpha" maskUnits="userSpaceOnUse" x="295" y="25" width="113" height="221">
<path fill-rule="evenodd" clip-rule="evenodd" d="M295.567 245.869L295.567 25.8536L407.19 25.8536V245.869L295.567 245.869Z" fill="white"/>
</mask>
<g mask="url(#mask3)">
<path d="M413.791 245.869C404.459 238.691 393.931 238.134 384.15 232.694C378.735 229.682 376.676 226.668 372.703 222.395C367.87 217.199 362.093 213.39 357.591 207.625C352.943 201.669 349.541 194.074 344.634 188.528C341.555 185.049 336.737 182.891 333.251 179.942C322.632 170.954 314.564 159.97 306.489 148.639C297.969 136.684 299.745 120.961 297.217 107.018C295.547 97.8047 294.585 88.6639 297.117 79.3371C298.548 74.0694 301.418 69.017 303.297 63.565C304.342 60.5312 305.983 53.7466 308.564 52.2674C309.494 51.7355 313.075 52.4542 314.144 52.4089C318.85 52.2087 321.35 50.9105 325.039 48.2561C328.143 46.0222 331.937 44.0756 334.62 42.0838C337.684 39.8088 339.82 36.4559 342.803 34.1056C348.477 29.6352 355.356 29.8145 362.182 28.6151C368.53 27.5002 374.663 25.0745 381.34 26.1014C390.623 27.5278 398.873 32.4513 407.519 35.6241C412.867 37.5875 422.968 41.4045 428.753 41.0468" stroke="#C07D53" stroke-width="0.25"/>
</g>
<path d="M-20.1025 303.627C-12.5138 297.12 -0.237877 301.373 8.62567 297.473C14.597 294.847 19.0572 293.213 23.6255 288.535C29.9788 282.03 31.7821 275.694 35.218 267.517C39.5761 257.144 45.2843 244.208 53.6998 236.532C57.4615 233.1 61.0715 230.024 64.9765 226.818C73.907 219.486 75.6844 214.338 78.4125 202.504C81.9497 187.159 83.078 171.517 86.2047 155.967C88.0207 146.937 89.2963 138.788 88.8734 129.697C88.5132 121.976 88.4922 114.611 87.0968 107.061C85.7993 100.037 83.3385 93.2619 83.9734 85.9001C85.1008 72.8167 91.031 62.2219 80.0902 50.7726C76.9082 47.4431 70.2718 43.4285 65.9565 40.8453C60.93 37.8341 55.6623 40.0228 50.5043 38.3367C36.1494 33.6436 31.7026 17.9184 18.6912 11.4587C12.3522 8.31102 4.88911 3.0919 -2.01193 1.79864C-6.49563 0.957684 -11.8948 1.79862 -16.4724 1.81035C-21.5147 1.82375 -28.4451 -0.0198216 -33 1.81035" stroke="#C07D53" stroke-width="0.25"/>
<mask id="mask4" mask-type="alpha" maskUnits="userSpaceOnUse" x="-12" y="6" width="98" height="292">
<path fill-rule="evenodd" clip-rule="evenodd" d="M-11.6123 297.952L-11.6123 6.09518H85.2207L85.2207 297.952H-11.6123Z" fill="white"/>
</mask>
<g mask="url(#mask4)">
<path d="M-13.3961 297.952C-5.58622 297.955 -0.69795 297.167 5.81611 293.308C9.551 291.096 12.651 287.753 16.3884 285.958C23.5223 282.529 24.1295 283.961 27.2429 275.179C29.4291 269.011 33.2184 263.671 36.2991 257.664C39.4695 251.483 42.5133 245.316 46.2273 239.546C51.1817 231.848 60.2463 228.68 65.5642 220.938C70.4676 213.798 71.4962 204.045 73.4335 195.725C75.7562 185.746 79.3462 175.871 81.4419 165.756C83.2151 157.196 81.3129 148.295 83.1204 139.462C84.4916 132.767 85.1458 126.905 85.1458 120.011C85.1458 105.877 84.5971 92.2109 85.1458 78.1157C85.408 71.3872 85.2069 61.908 80.6294 56.879C79.6126 55.7617 76.2052 53.8159 74.8524 52.7312C72.5398 50.8768 70.1334 49.297 67.6164 47.7424C57.8281 41.6974 46.8295 37.0194 36.7489 31.6311C29.801 27.9171 23.4511 20.9809 16.968 16.349C13.626 13.9601 10.4397 12.4901 6.83799 10.9824C2.00584 8.95877 -0.957607 8.44616 -6.27306 7.91344C-12.6531 7.27351 -24.7381 4.11237 -29.9053 8.00137" stroke="#C07D53" stroke-width="0.25"/>
</g>
<path d="M46.4873 365.453C50.2297 349.684 43.0875 332.242 52.8137 317.537C60.0021 306.669 72.6935 297.714 81.8602 288.253C99.1191 270.442 98.1039 245.448 107.426 223.237C113.866 207.896 122.277 189.142 139.903 186.642C149.792 185.239 171.347 181.3 181.055 186.291C182.609 199.86 180.312 212.874 179.254 226.348C177.916 243.395 179.515 260.64 178.686 277.749C177.773 296.602 186.536 312.452 190.294 330.687C191.951 338.724 192.616 347.008 194.097 355.067C195.347 361.867 198.353 369.284 195.384 376" stroke="#C07D53" stroke-width="0.25"/>
<path d="M50.8296 344.242C50.8279 333.175 51.5575 322.334 52.0701 311.361C52.2451 307.626 51.5751 303.106 53.1431 299.652C54.1926 297.34 56.6819 295.986 58.1695 294.701C63.3803 290.199 68.2116 285.673 72.7657 280.555C77.6053 275.115 83.5423 271.21 88.619 266.135C93.5751 261.18 94.2536 256.244 96.0896 249.955C98.7147 240.96 103.133 232.593 104.926 223.351C106.579 214.833 106.841 211.053 111.088 204.012C116.523 195.001 119.643 180.013 130.239 174.862C135.356 172.375 142.07 173.999 147.874 173.508C155.412 172.87 162.985 170.829 170.563 171.15C172.877 171.248 178.33 171.462 179.884 173.755C182.804 178.063 175.473 184.461 174.91 190.031C173.365 205.338 171.864 219.759 172.431 235.195C173.132 254.262 178.527 274.692 183.101 293.043C185.839 304.021 192.981 312.582 195.747 323.356C198.002 332.14 201.172 340.992 202.828 349.826" stroke="#C07D53" stroke-width="0.25"/>
<mask id="mask5" mask-type="alpha" maskUnits="userSpaceOnUse" x="267" y="259" width="127" height="62">
<path fill-rule="evenodd" clip-rule="evenodd" d="M267.456 320.675V259.498H393.025V320.675H267.456Z" fill="white"/>
</mask>
<g mask="url(#mask5)">
<path d="M392.968 261.759C393.411 273.082 391.322 287.593 384.056 296.572C381.834 299.321 378.853 301.288 376.117 303.466C372.238 306.551 368.545 310.111 364.93 313.541C359.739 318.472 353.547 321.357 346.778 323.659C338.714 326.401 329.675 326.759 321.353 327.295C312.871 327.842 300.174 324.259 293.121 319.308C290.496 317.465 287.984 314.537 285.668 312.327C283.02 309.802 280.778 306.841 279.08 303.632C276.033 297.868 274.486 291.342 271.864 285.332C269.685 280.335 268.054 273.973 267.479 268.596C267.273 266.676 268.55 260.174 267.5 259.498" stroke="#C07D53" stroke-width="0.25"/>
</g>
<path d="M335.038 265.997C337.163 269.969 331.656 272.885 328.4 273.062C323.824 273.31 321.928 269.121 322.039 265.149" stroke="#C07D53" stroke-width="0.25"/>
<path d="M340.69 265.997C343.705 271.036 333.241 276.058 329.652 276.798C325.3 277.693 322.444 277.706 319.75 274.165C318.001 271.865 315.283 268.909 315.822 265.714" stroke="#C07D53" stroke-width="0.25"/>
<path d="M346.625 264.584C346.549 277.163 336.451 282.038 325.12 282.386C318.709 282.583 316.143 280.277 313.32 275.066C311.51 271.721 310.485 267.292 310.736 263.453" stroke="#C07D53" stroke-width="0.25"/>
<path d="M353.689 262.889C353.761 268.934 351.335 274.951 346.616 278.797C342.272 282.337 334.397 283.157 329.102 284.224C322.042 285.647 316.924 284.213 311.784 278.685C307.614 274.202 304.719 267.433 303.389 261.476" stroke="#C07D53" stroke-width="0.25"/>
<path d="M358.776 261.758C358.94 268.046 354.985 274.082 351.836 279.129C348.071 285.165 340.847 287.185 334.467 289.522C329.28 291.42 322.501 292.288 317.774 289.333C312.24 285.874 307.753 280.102 304.521 274.411C303.306 272.275 301.714 270.079 300.69 267.871C299.802 265.956 299.776 263.186 298.868 261.475" stroke="#C07D53" stroke-width="0.25"/>
<path d="M364.145 260.628C364.316 264.021 363.222 268.894 362.308 272.232C361.48 275.247 360.554 278.211 358.669 280.725C353.185 288.041 344.791 291.241 336.509 293.978C331.126 295.758 322.374 297.007 316.849 295.313C309.595 293.09 302.962 283.525 299.161 277.468C296.715 273.571 296.5 269.534 295.187 265.247C294.765 263.87 293.804 259.179 293.498 258.933" stroke="#C07D53" stroke-width="0.25"/>
<path d="M370.079 259.497C369.485 266.662 366.258 276.59 363.092 283.156C359.787 290.011 349.144 293.909 342.503 296.757C334.744 300.086 322.904 305.792 314.519 303.006C303.669 299.404 297.591 289.859 294.32 279.554C292.291 273.166 291.299 265.64 289.542 259.497" stroke="#C07D53" stroke-width="0.25"/>
<path d="M377.144 259.216C377.4 264.409 374.659 271.1 373.244 276.087C372.603 278.346 372.712 281.027 371.717 283.158C370.52 285.722 367.974 288.05 366.13 290.158C358.151 299.285 345.162 302.735 333.667 305.559C328.343 306.868 322.997 308.378 317.436 308.102C312.937 307.88 310.504 305.977 307.027 303.328C303.412 300.573 300.389 298.152 297.47 294.703C294.281 290.937 292.916 286.664 291.237 282.097C288.205 273.85 287.101 265.917 285.868 257.52" stroke="#C07D53" stroke-width="0.25"/>
<path d="M384.208 259.498C383.945 271.093 383.21 283.471 374.174 291.844C365.855 299.549 355.386 306.619 344.855 310.529C333.053 314.91 322.693 314.756 310.722 311.202C301.51 308.469 291.844 299.84 288.526 290.802C284.494 279.823 282.297 267.89 278.804 256.955" stroke="#C07D53" stroke-width="0.25"/>
<mask id="mask6" mask-type="alpha" maskUnits="userSpaceOnUse" x="274" y="255" width="116" height="66">
<path fill-rule="evenodd" clip-rule="evenodd" d="M274 320.675V255.541H389.013V320.675H274Z" fill="white"/>
</mask>
<g mask="url(#mask6)">
<path d="M389.013 259.498C386.924 263.704 387.605 270.343 386.407 275.238C385.336 279.607 385.439 284.136 382.673 287.935C380.211 291.315 377.519 293.485 374.182 295.775C368.448 299.704 364.573 305.487 359.272 309.903C354.111 314.203 348.675 317.794 342.086 319.429C338.045 320.43 333.817 320.1 329.666 320.594C325.638 321.075 321.598 321.831 317.471 321.398C309.522 320.564 300.277 317.751 294.588 311.86C292.506 309.703 289.826 306.593 288.553 303.874C287.274 301.145 286.607 298.407 284.838 295.791C280.855 289.9 279.444 282.643 277.681 275.744C276.677 271.815 275.483 267.783 275.061 263.73C274.786 261.093 275.19 257.757 274 255.541" stroke="#C07D53" stroke-width="0.25"/>
</g>
</svg>
