<?xml version="1.0" standalone="no"?>
<!DOCTYPE svg PUBLIC "-//W3C//DTD SVG 1.0//EN" "http://www.w3.org/TR/2001/REC-SVG-20010904/DTD/svg10.dtd">
<svg xmlns="http://www.w3.org/2000/svg" xmlns:xlink="http://www.w3.org/1999/xlink" id="body_1" width="794" height="1123">

<g transform="matrix(0.0960329 0 0 0.09603795 -0 0.014114953)">
	<g>
		<g>
            <path d="M4008 5589L4070 5543L4263 5559C 4400 5295 4464 5192 4238 4940C 4182 4876 4068 4839 3946 4852C 3642 4885 3590 4851 3204 4851L3204 4851L3135 4943C 3179 5115 3138 5091 3254 5185C 3333 5249 3521 5545 3632 5578C 3722 5606 3906 5589 4008 5589z" stroke="none" fill="#DD5B27" fill-rule="nonzero" />
            <path d="M4199 5777L4164 5749C 3942 5749 3842 5710 3589 5721L3589 5721L3561 5685C 3465 5677 3493 5685 3428 5653C 3300 5844 3383 5658 3297 5939C 3238 6129 3230 6064 3140 6199C 3169 6257 3164 6239 3172 6327C 3499 6403 3741 6608 3943 6522C 4275 6380 4170 6284 4218 6025C 4237 5925 4252 5868 4199 5777z" stroke="none" fill="#DD5B27" fill-rule="nonzero" />
            <path d="M4455 5396C 4455 5741 4560 5688 4769 5885C 5069 6167 5002 6338 5386 6135L5386 6135L5386 6071C 5386 5654 5377 5515 5162 5107C 4967 5153 5083 5188 4837 5265C 4694 5310 4580 5337 4455 5396z" stroke="none" fill="#DD5B27" fill-rule="nonzero" />
            <path d="M2947 6520C 2947 6778 3003 6816 3010 7066C 3027 7592 3878 7346 3878 7162C 3878 6999 3817 6944 3814 6776C 3498 6610 3407 6455 3172 6455C 3057 6455 3058 6493 2947 6520z" stroke="none" fill="#DD5B27" fill-rule="nonzero" />
            <path d="M2883 6295C 2989 6224 3086 6145 3128 5994C 3246 5567 3353 5603 3107 5140C 2616 5254 2813 5296 2489 5677C 2440 5734 2405 5786 2414 5868C 2435 6064 2511 6016 2603 6094C 2763 6230 2590 6140 2883 6295z" stroke="none" fill="#DD5B27" fill-rule="nonzero" />
            <path d="M4520 7164L4554 7194C 4689 7194 4682 7207 4776 7162C 4845 7018 4829 6765 4699 6693L4699 6693L4231 6520C 4073 6603 3871 6690 3982 6927C 4081 7136 4099 7151 4520 7164z" stroke="none" fill="#DD5B27" fill-rule="nonzero" />
            <path d="M4289 6134C 4286 6198 4331 6379 4455 6456C 4782 6657 4767 6655 4969 6520C 4969 6172 4975 6210 4725 6026C 4584 5923 4561 5819 4327 5814L4327 5814L4289 6134z" stroke="none" fill="#DD5B27" fill-rule="nonzero" />
            <path d="M4423 5037C 4470 5037 4457 5026 4457 5075C 4468 5260 4578 5244 4730 5191C 4857 5146 5001 5099 5065 5011C 5012 4812 4549 4503 4327 4498C 4333 4772 4392 4575 4263 4819L4263 4819L4423 5037z" stroke="none" fill="#DD5B27" fill-rule="nonzero" />
            <path d="M2851 7120L2883 7120C 2883 6937 2925 6527 2786 6391C 2718 6325 2628 6282 2542 6218C 2442 6145 2406 6074 2305 6006C 2305 6328 2361 6451 2476 6670L2476 6670L2730 7026C 2793 7090 2782 7087 2851 7120z" stroke="none" fill="#DD5B27" fill-rule="nonzero" />
            <path d="M3749 4756L3791 4786C 4100 4786 4295 4890 4295 4498C 4207 4439 4135 4412 4059 4401L4059 4401L3653 4401C 3635 4614 3568 4528 3621 4754L3621 4754L3749 4756z" stroke="none" fill="#DD5B27" fill-rule="nonzero" />
            <path d="M4873 6744L4905 7033C 5009 6978 4983 6994 5057 6897C 5194 6716 5349 6485 5354 6231C 5201 6267 5148 6303 5075 6433C 5045 6488 5009 6547 4975 6590C 4926 6650 4873 6662 4873 6744z" stroke="none" fill="#DD5B27" fill-rule="nonzero" />
            <path d="M2337 5621C 2501 5534 2493 5430 2639 5216C 2684 5149 2709 5143 2754 5075L2754 5075L2979 5075C 3030 4858 2955 4910 2851 4754C 2613 4913 2343 5351 2337 5621z" stroke="none" fill="#DE5C28" fill-rule="nonzero" />
            <path d="M3525 7450C 3656 7453 3757 7475 3867 7483L3867 7483L4015 7483C 4122 7474 4247 7446 4415 7377C 4553 7321 4475 7395 4552 7290L4552 7290L4038 7194C 3641 7460 3721 7280 3525 7450z" stroke="none" fill="#DE5C28" fill-rule="nonzero" />
            <path d="M3204 4851L3326 4813C 3428 4781 3400 4813 3437 4722L3437 4722L3424 4466C 3395 4424 3431 4424 3396 4466C 3245 4501 3025 4584 2947 4690C 3014 4790 3050 4838 3204 4851z" stroke="none" fill="#DD5B27" fill-rule="nonzero" />
            <path d="M3437 4722C 3457 4679 3467 4682 3465 4594C 3465 4582 3461 4544 3459 4533C 3442 4457 3461 4509 3424 4466L3424 4466L3383 4580L3437 4722z" stroke="none" fill="#DD5B27" fill-rule="nonzero" />
            <path d="M4070 5543L4030 5558L4008 5589C 4116 5589 4045 5602 4070 5543z" stroke="none" fill="#DD5B27" fill-rule="nonzero" />
            <path d="M3791 4786L3749 4756L3791 4786" stroke="none" fill="#D9764E" fill-rule="nonzero" />
            <path d="M3589 5721L3561 5685L3589 5721" stroke="none" fill="#D5744A" fill-rule="nonzero" />
            <path d="M4199 5777L4164 5749L4199 5777" stroke="none" fill="#E47A4C" fill-rule="nonzero" />
            <path d="M2883 7120L2851 7120L2883 7120" stroke="none" fill="#F58552" fill-rule="nonzero" />
            <path d="M4554 7194L4520 7164L4554 7194" stroke="none" fill="#E47A4C" fill-rule="nonzero" />
		</g>
	</g>
</g>
</svg>