<svg width="20" height="20" viewBox="0 0 20 20" fill="none" xmlns="http://www.w3.org/2000/svg">
<path fill-rule="evenodd" clip-rule="evenodd" d="M0 9.99976C0 15.522 4.47779 19.9998 10 19.9998C15.5229 19.9998 20 15.5223 20 9.99976C20 4.47721 15.5229 -0.000244141 10 -0.000244141C4.47779 -0.000244141 0 4.47754 0 9.99976ZM18.5 9.99976C18.5 14.6939 14.6944 18.4998 10 18.4998C5.30621 18.4998 1.5 14.6935 1.5 9.99976C1.5 5.30597 5.30621 1.49976 10 1.49976C14.6944 1.49976 18.5 5.30561 18.5 9.99976ZM9.9951 14.5457C10.3748 14.5457 10.6886 14.2635 10.7383 13.8974L10.7451 13.7957V9.37666C10.7451 8.96244 10.4093 8.62666 9.9951 8.62666C9.6154 8.62666 9.30161 8.90881 9.25195 9.27489L9.2451 9.37666V13.7957C9.2451 14.2099 9.58089 14.5457 9.9951 14.5457ZM10.7551 6.20386C10.7551 6.61807 10.4193 6.95386 10.0051 6.95386L9.89333 6.94701C9.52725 6.89735 9.2451 6.58355 9.2451 6.20386C9.2451 5.78964 9.58089 5.45386 9.9951 5.45386L10.1069 5.4607C10.4729 5.51036 10.7551 5.82416 10.7551 6.20386Z" fill="#777777"/>
</svg>
