<svg width="30" height="30" viewBox="0 0 30 30" fill="none" xmlns="http://www.w3.org/2000/svg">
<g opacity="0.5">
<path d="M15 30C23.2843 30 30 23.2843 30 15C30 6.71573 23.2843 0 15 0C6.71573 0 0 6.71573 0 15C0 23.2843 6.71573 30 15 30Z" fill="#262626"/>
<path d="M15.0001 8.1177C17.2412 8.1177 17.5095 8.1177 18.3953 8.16711C18.9283 8.17176 19.4562 8.26971 19.9553 8.45653C20.3166 8.59683 20.6447 8.81081 20.9188 9.08486C21.1928 9.35891 21.4068 9.68701 21.5471 10.0483C21.7339 10.5474 21.8319 11.0754 21.8365 11.6083C21.8789 12.4942 21.8859 12.7624 21.8859 15.0036C21.8859 17.2448 21.8859 17.513 21.8365 18.3989C21.8319 18.9318 21.7339 19.4598 21.5471 19.9589C21.4068 20.3202 21.1928 20.6483 20.9188 20.9223C20.6447 21.1964 20.3166 21.4103 19.9553 21.5506C19.4562 21.7375 18.9283 21.8354 18.3953 21.8401C17.5095 21.8824 17.2448 21.8895 15.0001 21.8895C12.7553 21.8895 12.4906 21.8895 11.6048 21.8401C11.0719 21.8354 10.5439 21.7375 10.0448 21.5506C9.68641 21.4079 9.36152 21.1925 9.09059 20.9179C8.81967 20.6433 8.60858 20.3156 8.47064 19.9553C8.28382 19.4562 8.18587 18.9283 8.18123 18.3953C8.1177 17.5095 8.1177 17.2412 8.1177 15.0001C8.1177 12.7589 8.1177 12.4906 8.16711 11.6048C8.17627 11.071 8.279 10.543 8.47064 10.0448C8.61102 9.68844 8.82321 9.36482 9.09402 9.09402C9.36482 8.82321 9.68844 8.61102 10.0448 8.47064C10.5439 8.28382 11.0719 8.18587 11.6048 8.18123C12.4906 8.1177 12.7589 8.1177 15.0001 8.1177ZM15.0001 6.60358C12.7201 6.60358 12.4342 6.60358 11.5377 6.653C10.8396 6.67193 10.1498 6.80917 9.4977 7.05888C8.93499 7.27323 8.42398 7.60417 7.99819 8.02995C7.5724 8.45574 7.24147 8.96676 7.02711 9.52947C6.78223 10.1825 6.64976 10.8722 6.63535 11.5695C6.59653 12.4659 6.58594 12.7518 6.58594 15.0318C6.58594 17.3118 6.58594 17.5977 6.63535 18.4942C6.66347 19.1825 6.80663 19.8613 7.05888 20.5024C7.27323 21.0651 7.60417 21.5761 8.02995 22.0019C8.45574 22.4277 8.96676 22.7586 9.52947 22.973C10.1825 23.2179 10.8722 23.3503 11.5695 23.3648C12.4659 23.4036 12.7518 23.4142 15.0318 23.4142C17.3118 23.4142 17.5977 23.4142 18.4942 23.3648C19.1914 23.3503 19.8812 23.2179 20.5342 22.973C21.0969 22.7586 21.6079 22.4277 22.0337 22.0019C22.4595 21.5761 22.7904 21.0651 23.0048 20.5024C23.2496 19.8494 23.3821 19.1597 23.3965 18.4624C23.4353 17.5659 23.4459 17.2801 23.4459 15.0001C23.4459 12.7201 23.4459 12.4342 23.3965 11.5377C23.3821 10.8405 23.2496 10.1507 23.0048 9.4977C22.7904 8.93499 22.4595 8.42398 22.0337 7.99819C21.6079 7.5724 21.0969 7.24147 20.5342 7.02711C19.8812 6.78223 19.1914 6.64976 18.4942 6.63535C17.5977 6.59653 17.3118 6.58594 15.0318 6.58594L15.0001 6.60358Z" fill="white"/>
<path d="M15 10.6871C14.1469 10.6871 13.3131 10.94 12.6038 11.4139C11.8946 11.8878 11.3418 12.5614 11.0153 13.3495C10.6889 14.1376 10.6035 15.0048 10.7699 15.8414C10.9363 16.6781 11.3471 17.4466 11.9502 18.0497C12.5534 18.6529 13.3219 19.0637 14.1585 19.2301C14.9952 19.3965 15.8624 19.3111 16.6504 18.9847C17.4385 18.6582 18.1121 18.1054 18.586 17.3962C19.0599 16.6869 19.3129 15.853 19.3129 15C19.3129 13.8562 18.8585 12.7591 18.0497 11.9503C17.2408 11.1415 16.1438 10.6871 15 10.6871ZM15 17.7988C14.4464 17.7988 13.9053 17.6347 13.445 17.3272C12.9847 17.0196 12.626 16.5825 12.4142 16.0711C12.2023 15.5597 12.1469 14.9969 12.2549 14.454C12.3629 13.9111 12.6295 13.4124 13.0209 13.0209C13.4123 12.6295 13.911 12.363 14.4539 12.255C14.9969 12.147 15.5596 12.2024 16.071 12.4142C16.5824 12.6261 17.0196 12.9848 17.3271 13.4451C17.6346 13.9053 17.7988 14.4465 17.7988 15C17.7988 15.7423 17.5039 16.4542 16.979 16.9791C16.4541 17.504 15.7423 17.7988 15 17.7988Z" fill="white"/>
<path d="M19.4826 11.5271C20.04 11.5271 20.492 11.0751 20.492 10.5177C20.492 9.96017 20.04 9.50824 19.4826 9.50824C18.9251 9.50824 18.4731 9.96017 18.4731 10.5177C18.4731 11.0751 18.9251 11.5271 19.4826 11.5271Z" fill="white"/>
</g>
</svg>
