<svg width="9" height="15" viewBox="0 0 9 15" fill="none" xmlns="http://www.w3.org/2000/svg">
<path d="M4.94622 6.01415V1.70333L6.08035 2.84722C6.27349 3.04205 6.58668 3.04209 6.77985 2.84722C6.97301 2.65239 6.97301 2.33652 6.77985 2.14169L4.80136 0.146125C4.60823 -0.0487084 4.29503 -0.0487084 4.10187 0.146125L2.12338 2.14169C1.93021 2.33652 1.93021 2.65239 2.12338 2.84722C2.31651 3.04205 2.62971 3.04205 2.82287 2.84722L3.95698 1.70333V6.01458C1.73428 6.26356 0 8.16955 0 10.4767C0 12.9709 1.99699 15 4.4516 15C6.91287 15 8.93617 12.9586 8.93617 10.4767C8.93617 8.16829 7.18712 6.26146 4.94622 6.01415ZM4.4516 14.0022C2.54246 14.0022 0.989244 12.4207 0.989244 10.4767C0.989244 8.5511 2.54246 6.98449 4.4516 6.98449C6.37891 6.98449 7.94693 8.5511 7.94693 10.4767C7.94693 12.4207 6.37891 14.0022 4.4516 14.0022Z" fill="#008B75"/>
</svg>
