<svg width="24" height="24" viewBox="0 0 24 24" fill="none" xmlns="http://www.w3.org/2000/svg">
<path d="M20.9998 6.87096C20.9998 6.39019 20.6046 6 20.1175 6H12.8823C12.3953 6 12 6.39019 12 6.87096C12 7.35173 12.3953 7.74192 12.8823 7.74192H20.1175C20.6046 7.74192 20.9998 7.35173 20.9998 6.87096Z" fill="#282828"/>
<path d="M11.9998 16.871C11.9998 16.3902 11.6046 16 11.1175 16H3.88234C3.39529 16 3 16.3902 3 16.871C3 17.3517 3.39529 17.7419 3.88234 17.7419H11.1175C11.6046 17.7419 11.9998 17.3517 11.9998 16.871Z" fill="#282828"/>
<rect x="3" y="11" width="18" height="1.74" rx="0.87" fill="#282828"/>
</svg>
