<svg width="375" height="236" viewBox="0 0 375 236" fill="none" xmlns="http://www.w3.org/2000/svg">
<mask id="mask0" mask-type="alpha" maskUnits="userSpaceOnUse" x="226" y="176" width="133" height="145">
<path fill-rule="evenodd" clip-rule="evenodd" d="M226.152 320.675L226.152 176.849L358.925 176.849V320.675H226.152Z" fill="white"/>
</mask>
<g mask="url(#mask0)">
<path fill-rule="evenodd" clip-rule="evenodd" d="M226.152 339.648V268.292C226.152 254.401 226.882 240.668 227.189 226.832C227.323 220.803 225.149 211.765 228.698 206.925C232.166 202.197 243.466 200.127 248.467 197.359C254.937 193.778 260.888 189.362 267.394 185.93C271.336 183.849 279.734 176.931 283.7 176.85C289.478 176.73 298.801 185.191 304.354 187.74C318.785 194.364 335.302 201.204 350.424 204.968C351.514 225.754 353.751 246.747 353.691 267.584C353.66 278.299 354.639 288.617 355.764 299.06C356.938 309.943 355.403 323.97 358.925 334.344C350.069 334.901 339.991 329.47 331.488 327.725C324.352 326.26 317.269 325.091 309.881 324.095C282.488 320.403 258.362 341.053 226.152 339.648Z" fill="#008B75"/>
</g>
<path fill-rule="evenodd" clip-rule="evenodd" d="M18.4248 194.832C32.5619 216.944 41.8351 244.349 57.8635 265.198C65.1306 274.65 71.1395 274.693 82.6851 274.674C96.4277 274.652 110.666 273.938 124.015 270.523C140.286 266.359 141.833 261.895 141.815 245.644C141.797 227.953 142.483 210.376 143.902 192.847C144.555 184.763 148.951 163.284 143.777 156.525C136.645 147.208 98.675 149.702 87.6462 148.148C77.0447 146.654 61.1913 141.369 50.4909 142.964C37.6311 144.881 22.715 173.772 18.4248 194.832Z" fill="#FFD200"/>
<mask id="mask1" mask-type="alpha" maskUnits="userSpaceOnUse" x="43" y="215" width="122" height="106">
<path fill-rule="evenodd" clip-rule="evenodd" d="M43.6431 320.675L43.6431 215.395H164.976V320.675H43.6431Z" fill="white"/>
</mask>
<g mask="url(#mask1)">
<path fill-rule="evenodd" clip-rule="evenodd" d="M164.976 335.501C164.865 315.205 162.076 293.925 160.742 273.571C160.242 265.954 158.483 258.45 157.925 250.82C157.473 244.662 161.029 227.165 157.791 222.196C149.718 209.804 128.347 216.929 119.597 223.274C100.216 237.328 83.2119 253.986 65.638 270.2C61.3562 274.151 54.3345 279.385 51.9114 284.703C48.9982 291.098 49.2377 302.921 48.0609 309.744C46.183 320.628 43.4122 331.653 43.6584 342.759C55.869 343.68 75.3551 339.42 87.6135 337.735C105.547 335.271 124.407 332.627 142.325 331.336C150.553 330.743 157.017 333.825 164.976 335.501Z" fill="#40A8C4"/>
</g>
<mask id="mask2" mask-type="alpha" maskUnits="userSpaceOnUse" x="292" y="23" width="116" height="240">
<path fill-rule="evenodd" clip-rule="evenodd" d="M292.047 262.38L292.047 23.2095L407.19 23.2095L407.19 262.38H292.047Z" fill="white"/>
</mask>
<g mask="url(#mask2)">
<path d="M418.434 262.38C413.061 248.846 393.667 242.362 381.381 237.605C364.484 231.063 367.4 209.932 354.577 198.62C349.735 194.35 346.145 189.12 341.688 184.348C335.043 177.234 327.695 170.853 320.872 163.916C316.745 159.719 311.579 156.894 307.422 152.971C300.861 146.776 297.306 133.616 295.761 124.782C293.924 114.282 294.188 103.673 292.95 93.1416C292.434 88.7642 291.469 84.696 292.512 80.4175C293.594 75.9757 296.83 72.7157 299.698 69.4223C305.238 63.059 309.037 62.8286 316.412 59.6742C329.308 54.1577 328.977 36.5219 340.679 30.301C346.134 27.4012 354.119 27.0327 360.133 25.0551C364.822 23.5131 367.881 23.085 372.47 23.8824C379.887 25.1715 383.888 25.3307 391.257 23.9838C398.093 22.7332 403.815 22.8505 410.303 25.4278C416.074 27.7195 420.799 31.9511 426.689 33.8248" stroke="#C07D53" stroke-width="0.25"/>
</g>
<mask id="mask3" mask-type="alpha" maskUnits="userSpaceOnUse" x="295" y="25" width="113" height="221">
<path fill-rule="evenodd" clip-rule="evenodd" d="M295.567 245.869L295.567 25.8536L407.19 25.8536V245.869L295.567 245.869Z" fill="white"/>
</mask>
<g mask="url(#mask3)">
<path d="M413.791 245.869C404.459 238.691 393.931 238.134 384.15 232.694C378.735 229.682 376.676 226.668 372.703 222.395C367.87 217.199 362.093 213.39 357.591 207.625C352.943 201.669 349.541 194.074 344.634 188.528C341.555 185.049 336.737 182.891 333.251 179.942C322.632 170.954 314.564 159.97 306.489 148.639C297.969 136.684 299.745 120.961 297.217 107.018C295.547 97.8047 294.585 88.6639 297.117 79.3371C298.548 74.0694 301.418 69.017 303.297 63.565C304.342 60.5312 305.983 53.7466 308.564 52.2674C309.494 51.7355 313.075 52.4542 314.144 52.4089C318.85 52.2087 321.35 50.9105 325.039 48.2561C328.143 46.0222 331.937 44.0756 334.62 42.0838C337.684 39.8088 339.82 36.4559 342.803 34.1056C348.477 29.6352 355.356 29.8145 362.182 28.6151C368.53 27.5002 374.663 25.0745 381.34 26.1014C390.623 27.5278 398.873 32.4513 407.519 35.6241C412.867 37.5875 422.968 41.4045 428.753 41.0468" stroke="#C07D53" stroke-width="0.25"/>
</g>
<path d="M-20.1025 303.627C-12.5138 297.12 -0.237877 301.373 8.62567 297.473C14.597 294.847 19.0572 293.213 23.6255 288.535C29.9788 282.03 31.7821 275.694 35.218 267.517C39.5761 257.144 45.2843 244.208 53.6998 236.532C57.4615 233.1 61.0715 230.024 64.9765 226.818C73.907 219.486 75.6844 214.338 78.4125 202.504C81.9497 187.159 83.078 171.517 86.2047 155.967C88.0207 146.937 89.2963 138.788 88.8734 129.697C88.5132 121.976 88.4922 114.611 87.0968 107.061C85.7993 100.037 83.3385 93.2619 83.9734 85.9001C85.1008 72.8167 91.031 62.2219 80.0902 50.7726C76.9082 47.4431 70.2718 43.4285 65.9565 40.8453C60.93 37.8341 55.6623 40.0228 50.5043 38.3367C36.1494 33.6436 31.7026 17.9184 18.6912 11.4587C12.3522 8.31102 4.88911 3.0919 -2.01193 1.79864C-6.49563 0.957684 -11.8948 1.79862 -16.4724 1.81035C-21.5147 1.82375 -28.4451 -0.0198216 -33 1.81035" stroke="#C07D53" stroke-width="0.25"/>
<mask id="mask4" mask-type="alpha" maskUnits="userSpaceOnUse" x="-12" y="6" width="98" height="292">
<path fill-rule="evenodd" clip-rule="evenodd" d="M-11.6123 297.952L-11.6123 6.09518H85.2207L85.2207 297.952H-11.6123Z" fill="white"/>
</mask>
<g mask="url(#mask4)">
<path d="M-13.3961 297.952C-5.58622 297.955 -0.69795 297.167 5.81611 293.308C9.551 291.096 12.651 287.753 16.3884 285.958C23.5223 282.529 24.1295 283.961 27.2429 275.179C29.4291 269.011 33.2184 263.671 36.2991 257.664C39.4695 251.483 42.5133 245.316 46.2273 239.546C51.1817 231.848 60.2463 228.68 65.5642 220.938C70.4676 213.798 71.4962 204.045 73.4335 195.725C75.7562 185.746 79.3462 175.871 81.4419 165.756C83.2151 157.196 81.3129 148.295 83.1204 139.462C84.4916 132.767 85.1458 126.905 85.1458 120.011C85.1458 105.877 84.5971 92.2109 85.1458 78.1157C85.408 71.3872 85.2069 61.908 80.6294 56.879C79.6126 55.7617 76.2052 53.8159 74.8524 52.7312C72.5398 50.8768 70.1334 49.297 67.6164 47.7424C57.8281 41.6974 46.8295 37.0194 36.7489 31.6311C29.801 27.9171 23.4511 20.9809 16.968 16.349C13.626 13.9601 10.4397 12.4901 6.83799 10.9824C2.00584 8.95877 -0.957607 8.44616 -6.27306 7.91344C-12.6531 7.27351 -24.7381 4.11237 -29.9053 8.00137" stroke="#C07D53" stroke-width="0.25"/>
</g>
<path d="M46.4873 365.453C50.2297 349.684 43.0875 332.242 52.8137 317.537C60.0021 306.669 72.6935 297.714 81.8602 288.253C99.1191 270.442 98.1039 245.448 107.426 223.237C113.866 207.896 122.277 189.142 139.903 186.642C149.792 185.239 171.347 181.3 181.055 186.291C182.609 199.86 180.312 212.874 179.254 226.348C177.916 243.395 179.515 260.64 178.686 277.749C177.773 296.602 186.536 312.452 190.294 330.687C191.951 338.724 192.616 347.008 194.097 355.067C195.347 361.867 198.353 369.284 195.384 376" stroke="#C07D53" stroke-width="0.25"/>
<path d="M50.8296 344.242C50.8279 333.175 51.5575 322.334 52.0701 311.361C52.2451 307.626 51.5751 303.106 53.1431 299.652C54.1926 297.34 56.6819 295.986 58.1695 294.701C63.3803 290.199 68.2116 285.673 72.7657 280.555C77.6053 275.115 83.5423 271.21 88.619 266.135C93.5751 261.18 94.2536 256.244 96.0896 249.955C98.7147 240.96 103.133 232.593 104.926 223.351C106.579 214.833 106.841 211.053 111.088 204.012C116.523 195.001 119.643 180.013 130.239 174.862C135.356 172.375 142.07 173.999 147.874 173.508C155.412 172.87 162.985 170.829 170.563 171.15C172.877 171.248 178.33 171.462 179.884 173.755C182.804 178.063 175.473 184.461 174.91 190.031C173.365 205.338 171.864 219.759 172.431 235.195C173.132 254.262 178.527 274.692 183.101 293.043C185.839 304.021 192.981 312.582 195.747 323.356C198.002 332.14 201.172 340.992 202.828 349.826" stroke="#C07D53" stroke-width="0.25"/>
</svg>
