<svg width="234" height="186" viewBox="0 0 234 186" fill="none" xmlns="http://www.w3.org/2000/svg">
<path d="M113.628 185.337C142.794 185.337 166.438 161.693 166.438 132.528C166.438 103.362 142.794 79.7183 113.628 79.7183C84.4624 79.7183 60.8188 103.362 60.8188 132.528C60.8188 161.693 84.4624 185.337 113.628 185.337Z" fill="#27AE60"/>
<path d="M88.4937 139.305C91.0756 141.564 93.4155 144.005 95.7756 146.425C98.1357 148.846 100.334 151.367 102.533 153.929H98.6602C104.409 145.255 110.582 136.904 117.077 128.816C120.324 124.781 123.713 120.747 127.163 116.934C130.612 113.122 134.223 109.269 138.096 105.679C135.715 110.399 133.053 114.877 130.289 119.295C127.526 123.712 124.621 128.029 121.615 132.245C115.564 140.717 109.291 148.947 102.513 156.834L100.314 159.376L98.64 156.834C96.7976 154.023 95.0158 151.166 93.2945 148.261C91.6404 145.316 89.946 142.391 88.4937 139.305Z" fill="white"/>
<path d="M188.646 111.226C187.073 105.679 179.872 106.224 179.872 106.224L180.053 110.076C184.229 109.35 186.811 114.232 186.811 114.232L188.646 111.226Z" fill="#27AE60"/>
<path d="M35.6648 122.886C34.1116 117.338 26.8901 117.863 26.8901 117.863L27.0918 121.736C31.2674 121.01 33.8493 125.891 33.8493 125.891L35.6648 122.886Z" fill="#EBEBEB"/>
<path d="M119.922 46.1326C128.293 48.6742 133.497 39.0322 133.497 39.0322L128.414 36.1274C125.913 42.0377 117.562 41.3519 117.562 41.3519L119.922 46.1326Z" fill="#EBEBEB"/>
<path d="M73.5065 56.521C69.6134 56.9446 69.1494 61.8261 69.1494 61.8261L71.7515 62.1287C71.7515 59.2643 75.3219 58.0944 75.3219 58.0944L73.5065 56.521Z" fill="#27AE60"/>
<path d="M233.952 92.265C234.517 88.392 229.918 86.7178 229.918 86.7178L228.97 89.1585C231.753 89.8645 232.016 93.6165 232.016 93.6165L233.952 92.265Z" fill="#EBEBEB"/>
<path d="M96.2197 5.5472C96.7845 1.67425 92.1854 0 92.1854 0L91.2373 2.46094C94.021 3.16695 94.2832 6.8987 94.2832 6.8987L96.2197 5.5472Z" fill="#27AE60"/>
<path d="M0.0415663 68.0187C-0.644269 74.0702 7.38404 75.5629 7.38404 75.5629L8.8364 71.5285C4.01538 71.0848 3.32952 65.4771 3.32952 65.4771L0.0415663 68.0187Z" fill="#27AE60"/>
<path d="M179.085 46.0112C182.998 46.2331 184.249 41.4928 184.249 41.4928L181.727 40.7666C181.263 43.5906 177.552 44.1756 177.552 44.1756L179.085 46.0112Z" fill="#27AE60"/>
<path d="M200.447 61.9473C199.398 62.2414 198.304 62.3439 197.219 62.2498C196.134 62.3461 195.04 62.2436 193.992 61.9473C196.122 61.5169 198.317 61.5169 200.447 61.9473Z" fill="#EBEBEB"/>
<path d="M203.876 53.1724C204.279 55.3322 204.279 57.5481 203.876 59.708C203.445 57.5507 203.445 55.3296 203.876 53.1724Z" fill="#EBEBEB"/>
<path d="M207.507 61.7253C208.556 61.4312 209.649 61.3287 210.734 61.4227C211.82 61.3264 212.913 61.429 213.962 61.7253C211.832 62.1557 209.637 62.1557 207.507 61.7253Z" fill="#EBEBEB"/>
<path d="M204.098 70.5201C203.667 68.3561 203.667 66.1284 204.098 63.9644C204.501 66.131 204.501 68.3535 204.098 70.5201Z" fill="#EBEBEB"/>
<path d="M209.302 66.8489C209.181 66.9498 208.556 66.4253 207.91 65.679C207.265 64.9326 206.882 64.2064 207.003 64.1056C207.124 64.0047 207.769 64.509 208.395 65.2755C209.02 66.0421 209.443 66.627 209.302 66.8489Z" fill="#EBEBEB"/>
<path d="M208.999 56.7627C209.121 56.9039 208.697 57.5292 208.031 58.1949C207.366 58.8606 206.74 59.3043 206.619 59.1833C206.498 59.0623 206.922 58.4168 207.587 57.7511C208.253 57.0855 208.878 56.7627 208.999 56.7627Z" fill="#EBEBEB"/>
<path d="M201.617 59.325C201.496 59.4662 200.89 59.1434 200.265 58.6189C199.64 58.0945 199.236 57.57 199.337 57.449C199.438 57.328 200.043 57.6305 200.669 58.1348C201.294 58.6391 201.717 59.2039 201.617 59.325Z" fill="#EBEBEB"/>
<path d="M201.314 63.7221C201.456 63.8229 201.072 64.4483 200.467 65.1139C199.862 65.7796 199.277 66.2032 199.156 66.0821C199.035 65.9611 199.398 65.3358 200.003 64.6903C200.608 64.0448 201.193 63.601 201.314 63.7221Z" fill="#EBEBEB"/>
<path d="M24.7113 43.9538C22.5811 44.3842 20.3865 44.3842 18.2563 43.9538C19.3052 43.6597 20.3985 43.5572 21.4838 43.6513C22.5691 43.555 23.6628 43.6575 24.7113 43.9538Z" fill="#27AE60"/>
<path d="M28.1407 35.1792C28.5711 37.3433 28.5711 39.5709 28.1407 41.735C27.7103 39.5709 27.7103 37.3433 28.1407 35.1792Z" fill="#27AE60"/>
<path d="M31.7915 43.7524C33.9216 43.3221 36.1163 43.3221 38.2464 43.7524C36.1163 44.1828 33.9216 44.1828 31.7915 43.7524Z" fill="#27AE60"/>
<path d="M28.3628 52.5268C27.9324 50.3695 27.9324 48.1485 28.3628 45.9912C28.7932 48.1485 28.7932 50.3695 28.3628 52.5268Z" fill="#27AE60"/>
<path d="M33.5871 48.6943C33.4458 48.8153 32.8205 48.2909 32.1952 47.5243C31.5699 46.7578 31.1463 46.072 31.2875 45.951C31.4287 45.8299 32.0338 46.3746 32.6793 47.1209C33.3248 47.8673 33.7081 48.6943 33.5871 48.6943Z" fill="#27AE60"/>
<path d="M33.2847 38.8103C33.4057 38.9314 32.9619 39.5768 32.3164 40.2425C31.6709 40.9082 31.0254 41.3318 30.9044 41.2107C30.7834 41.0897 31.207 40.4644 31.8727 39.7987C32.5383 39.1331 33.1636 38.6086 33.2847 38.8103Z" fill="#27AE60"/>
<path d="M25.8815 41.3517C25.7806 41.4728 25.1755 41.1702 24.5501 40.6457C23.9248 40.1212 23.5012 39.5968 23.6222 39.4556C23.7433 39.3144 24.3282 39.6371 24.9536 40.1616C25.5789 40.6861 26.0025 41.2105 25.8815 41.3517Z" fill="#27AE60"/>
<path d="M25.5989 45.7292C25.72 45.8502 25.3367 46.4756 24.7517 47.1412C24.1668 47.8069 23.5616 48.2305 23.4204 48.1095C23.2792 47.9885 23.6826 47.3631 24.2676 46.7176C24.8526 46.0721 25.4577 45.6082 25.5989 45.7292Z" fill="#27AE60"/>
</svg>
