<svg width="30" height="30" viewBox="0 0 30 30" fill="none" xmlns="http://www.w3.org/2000/svg">
<g opacity="0.5">
<path d="M15 30C23.2843 30 30 23.2843 30 15C30 6.71573 23.2843 0 15 0C6.71573 0 0 6.71573 0 15C0 23.2843 6.71573 30 15 30Z" fill="#262626"/>
<path d="M23.4001 18.353C23.3982 18.9889 23.1448 19.5983 22.6951 20.048C22.2454 20.4976 21.636 20.7511 21.0001 20.753H9.0001C8.36415 20.7511 7.75478 20.4976 7.3051 20.048C6.85541 19.5983 6.60196 18.9889 6.6001 18.353V11.6471C6.60196 11.0111 6.85541 10.4018 7.3051 9.95207C7.75478 9.50239 8.36415 9.24893 9.0001 9.24707H21.0001C21.636 9.24893 22.2454 9.50239 22.6951 9.95207C23.1448 10.4018 23.3982 11.0111 23.4001 11.6471V18.353ZM13.2636 17.0612L17.806 14.7106L13.2636 12.353V17.0612Z" fill="white"/>
</g>
</svg>
