<svg width="23" height="18" viewBox="0 0 23 18" fill="none" xmlns="http://www.w3.org/2000/svg">
<path fill-rule="evenodd" clip-rule="evenodd" d="M11.9377 0.4375C9.38215 0.4375 7.32945 2.4902 7.32945 5.04575C7.32945 7.60205 9.38198 9.65492 11.9377 9.65492C14.4934 9.65492 16.5459 7.60205 16.5459 5.04575C16.5459 2.4902 14.4932 0.4375 11.9377 0.4375ZM11.9377 1.9375C13.6648 1.9375 15.0459 3.31863 15.0459 5.04575C15.0459 6.77367 13.6649 8.15492 11.9377 8.15492C10.2105 8.15492 8.82945 6.77367 8.82945 5.04575C8.82945 3.31863 10.2106 1.9375 11.9377 1.9375ZM6.28993 1.37937C6.70414 1.37937 7.03993 1.71516 7.03993 2.12937C7.03993 2.54359 6.70414 2.87937 6.28993 2.87937C5.10156 2.87937 4.13776 3.84275 4.13776 5.03062C4.13776 6.2185 5.10156 7.18187 6.28993 7.18187C6.70414 7.18187 7.03993 7.51766 7.03993 7.93187C7.03993 8.34609 6.70414 8.68188 6.28993 8.68188C4.27328 8.68188 2.63776 7.04707 2.63776 5.03062C2.63776 3.01418 4.27328 1.37937 6.28993 1.37937ZM21.247 5.03062C21.247 3.01418 19.6115 1.37937 17.5948 1.37937C17.1806 1.37937 16.8448 1.71516 16.8448 2.12937C16.8448 2.54359 17.1806 2.87937 17.5948 2.87937C18.7832 2.87937 19.747 3.84275 19.747 5.03062C19.747 6.2185 18.7832 7.18187 17.5948 7.18187C17.1806 7.18187 16.8448 7.51766 16.8448 7.93187C16.8448 8.34609 17.1806 8.68188 17.5948 8.68188C19.6115 8.68188 21.247 7.04707 21.247 5.03062ZM20.4958 10.555C20.0156 10.4466 19.5024 10.3725 18.9806 10.3365C18.5674 10.308 18.2093 10.6199 18.1808 11.0331C18.1523 11.4464 18.4642 11.8045 18.8774 11.833C19.3239 11.8638 19.7615 11.9269 20.187 12.0227C20.8487 12.1525 21.2801 12.3678 21.3872 12.5921C21.4677 12.7615 21.4677 12.9606 21.3864 13.132C21.2807 13.3541 20.8529 13.5682 20.2006 13.7024C19.7949 13.7858 19.5336 14.1823 19.6171 14.5881C19.7005 14.9938 20.097 15.2551 20.5028 15.1716C21.5809 14.9499 22.3708 14.5546 22.7413 13.7756C23.016 13.1964 23.016 12.5247 22.7414 11.947C22.3682 11.1651 21.5648 10.7643 20.4958 10.555ZM5.70394 11.0331C5.67544 10.6199 5.31735 10.308 4.90412 10.3365C4.38233 10.3725 3.86916 10.4466 3.36839 10.5593L3.16194 10.603C2.21432 10.8195 1.49137 11.2174 1.14435 11.9469C0.8685 12.5241 0.8685 13.197 1.14464 13.7762C1.51357 14.5544 2.30334 14.9498 3.38199 15.1716C3.78771 15.2551 4.18425 14.9938 4.26768 14.5881C4.35111 14.1823 4.08984 13.7858 3.68412 13.7024C3.03203 13.5683 2.60466 13.3543 2.49933 13.1321C2.41727 12.96 2.41727 12.7621 2.49832 12.5925C2.60531 12.3676 3.03627 12.1525 3.67715 12.027L4.01038 11.9588C4.34256 11.8974 4.67243 11.8561 5.00732 11.833C5.42055 11.8045 5.73244 11.4464 5.70394 11.0331ZM5.16703 14.1845C5.16703 11.7986 7.63497 10.9595 11.9377 10.9595L12.2425 10.961C16.3655 10.9997 18.7084 11.8407 18.7084 14.1671C18.7084 16.4388 16.4688 17.3087 12.5397 17.3863L11.9377 17.3921C7.6251 17.3921 5.16703 16.5678 5.16703 14.1845ZM17.2084 14.1671C17.2084 13.0566 15.4278 12.4595 11.9377 12.4595C8.45099 12.4595 6.66703 13.0661 6.66703 14.1845C6.66703 15.2952 8.44701 15.8921 11.9377 15.8921C15.4234 15.8921 17.2084 15.2851 17.2084 14.1671Z" fill="#777777"/>
</svg>
