<svg width="24" height="24" viewBox="0 0 24 24" fill="none" xmlns="http://www.w3.org/2000/svg">
<path fill-rule="evenodd" clip-rule="evenodd" d="M16.335 2H7.66598C4.2684 2 2.00098 4.4326 2.00098 7.916V16.084C2.00098 19.5707 4.26235 22 7.66598 22H16.334C19.7386 22 22.001 19.5707 22.001 16.084V7.916C22.001 4.4295 19.7388 2 16.335 2ZM7.66598 3.5H16.335C18.8855 3.5 20.501 5.23496 20.501 7.916V16.084C20.501 18.7652 18.8854 20.5 16.334 20.5H7.66598C5.11574 20.5 3.50098 18.7653 3.50098 16.084V7.916C3.50098 5.23837 5.12132 3.5 7.66598 3.5ZM12.0003 7.4541C12.4145 7.4541 12.7503 7.78989 12.7503 8.2041C12.7503 8.5838 12.4681 8.89759 12.102 8.94725L11.9903 8.9541C11.5761 8.9541 11.2403 8.61831 11.2403 8.2041C11.2403 7.8244 11.5224 7.51061 11.8885 7.46095L12.0003 7.4541ZM11.9903 10.6269C12.37 10.6269 12.6838 10.9091 12.7334 11.2751L12.7403 11.3769V15.7959C12.7403 16.2101 12.4045 16.5459 11.9903 16.5459C11.6106 16.5459 11.2968 16.2637 11.2471 15.8977L11.2403 15.7959V11.3769C11.2403 10.9627 11.5761 10.6269 11.9903 10.6269Z" fill="#777777"/>
</svg>
