<svg width="15" height="15" viewBox="0 0 15 15" fill="none" xmlns="http://www.w3.org/2000/svg">
<path fill-rule="evenodd" clip-rule="evenodd" d="M7.5 15C11.6421 15 15 11.6421 15 7.5C15 3.35786 11.6421 0 7.5 0C3.35786 0 0 3.35786 0 7.5C0 11.6421 3.35786 15 7.5 15ZM7.5 13.3333C4.27834 13.3333 1.66667 10.7217 1.66667 7.5C1.66667 4.27834 4.27834 1.66667 7.5 1.66667C10.7217 1.66667 13.3333 4.27834 13.3333 7.5C13.3333 10.7217 10.7217 13.3333 7.5 13.3333ZM7.5 10.8333C9.34095 10.8333 10.8333 9.34095 10.8333 7.5C10.8333 5.65905 9.34095 4.16667 7.5 4.16667C5.65905 4.16667 4.16667 5.65905 4.16667 7.5C4.16667 9.34095 5.65905 10.8333 7.5 10.8333Z" fill="#40A8C4"/>
</svg>
