<svg width="40" height="40" viewBox="0 0 40 40" fill="none" xmlns="http://www.w3.org/2000/svg">
<path fill-rule="evenodd" clip-rule="evenodd" d="M33.8119 8.73844C34.4602 8.73844 35 9.27677 35 9.96176V10.5951C35 11.2634 34.4602 11.8184 33.8119 11.8184H6.18976C5.53977 11.8184 5 11.2634 5 10.5951V9.96176C5 9.27677 5.53977 8.73844 6.18976 8.73844H11.0493C12.0364 8.73844 12.8955 8.03678 13.1176 7.04679L13.3721 5.91014C13.7676 4.36182 15.0692 3.3335 16.5588 3.3335H23.4412C24.9146 3.3335 26.2308 4.36182 26.6117 5.82847L26.8841 7.04513C27.1045 8.03678 27.9636 8.73844 28.9523 8.73844H33.8119ZM31.3431 31.8902C31.8504 27.1619 32.7387 15.9287 32.7387 15.8154C32.7711 15.472 32.6592 15.1471 32.4372 14.8854C32.1989 14.6404 31.8974 14.4954 31.5651 14.4954H8.44756C8.11365 14.4954 7.79595 14.6404 7.5755 14.8854C7.35181 15.1471 7.24159 15.472 7.2578 15.8154C7.26078 15.8362 7.29265 16.2319 7.34594 16.8934C7.58266 19.8321 8.24197 28.0171 8.668 31.8902C8.96949 34.7435 10.8417 36.5368 13.5535 36.6018C15.6461 36.6502 17.8019 36.6668 20.0063 36.6668C22.0827 36.6668 24.1916 36.6502 26.349 36.6018C29.1548 36.5535 31.0254 34.7919 31.3431 31.8902Z" fill="#40A8C4"/>
</svg>
