<svg xmlns="http://www.w3.org/2000/svg" width="18" height="20" viewBox="0 0 18 20"><g><g><path fill="#777" d="M12.987 1.552l.237 1.216c.075.38.378.665.746.714l.112.007h3.187a.74.74 0 0 1 .731.75c0 .38-.275.694-.632.743l-.1.007H.732A.74.74 0 0 1 0 4.24c0-.38.275-.693.632-.743l.1-.007h3.186c.378 0 .71-.25.828-.61l.03-.11.247-1.264A1.993 1.993 0 0 1 6.779.006L6.936 0h4.128c.843 0 1.588.546 1.875 1.39zM11.914 3.49a2.442 2.442 0 0 1-.086-.261l-.038-.166-.226-1.17a.521.521 0 0 0-.414-.385l-.086-.007H6.936a.525.525 0 0 0-.463.278l-.026.068-.237 1.216c-.03.148-.071.291-.124.427zm4.064 3.231c.37.03.652.337.672.706l-.01.206-.314 3.851-.33 3.758c-.07.75-.132 1.384-.186 1.882-.187 1.736-1.314 2.81-3.013 2.841a191.08 191.08 0 0 1-7.663-.005c-1.65-.035-2.76-1.12-2.944-2.83l-.128-1.259-.222-2.443-.228-2.68-.26-3.22a.744.744 0 0 1 .67-.807c.37-.03.696.226.773.587l.03.295.245 3.017.267 3.127c.12 1.354.223 2.45.306 3.219.105.974.618 1.475 1.521 1.494 2.452.053 4.978.054 7.606.005.958-.018 1.479-.514 1.586-1.507l.127-1.252c.037-.387.076-.813.118-1.276l.268-3.075.322-3.946a.74.74 0 0 1 .688-.69z"/></g></g></svg>