<svg width="21" height="20" viewBox="0 0 21 20" fill="none" xmlns="http://www.w3.org/2000/svg">
<path d="M3.71429 19.4286H0.285714C0.209938 19.4286 0.137266 19.3985 0.0836838 19.3449C0.0301019 19.2913 0 19.2186 0 19.1429V12.2857C0 12.2099 0.0301019 12.1373 0.0836838 12.0837C0.137266 12.0301 0.209938 12 0.285714 12H3.71429C3.79006 12 3.86273 12.0301 3.91632 12.0837C3.9699 12.1373 4 12.2099 4 12.2857V19.1429C4 19.2186 3.9699 19.2913 3.91632 19.3449C3.86273 19.3985 3.79006 19.4286 3.71429 19.4286ZM0.571429 18.8571H3.42857V12.5714H0.571429V18.8571Z" fill="#282828"/>
<path d="M10.3493 20C9.90524 19.9999 9.46271 19.9479 9.03072 19.8451L3.64844 18.5637L3.78072 18.008L9.16301 19.2894C10.0402 19.4971 10.9565 19.4706 11.8201 19.2125L18.9656 17.0697C19.1195 17.0236 19.2508 16.9221 19.3342 16.7848C19.4175 16.6474 19.4469 16.484 19.4167 16.3263C19.3865 16.1685 19.2987 16.0275 19.1705 15.9307C19.0423 15.8339 18.8827 15.7881 18.7227 15.8023L13.1676 16.2857L13.1184 15.7143L18.6744 15.2323C18.9754 15.2057 19.2755 15.2918 19.5167 15.4739C19.7578 15.656 19.9228 15.921 19.9797 16.2178C20.0366 16.5145 19.9814 16.8218 19.8247 17.0802C19.668 17.3385 19.421 17.5296 19.1316 17.6163L11.9861 19.7591C11.4552 19.9187 10.9037 19.9999 10.3493 20Z" fill="#282828"/>
<path d="M13.1424 16.2859H11.1424V15.7145H13.1424C13.3697 15.7145 13.5877 15.6242 13.7485 15.4634C13.9092 15.3027 13.9995 15.0847 13.9995 14.8573C13.9995 14.63 13.9092 14.412 13.7485 14.2513C13.5877 14.0905 13.3697 14.0002 13.1424 14.0002H12.2853C11.3464 14.0002 10.9195 13.8071 9.88782 13.3405C9.57725 13.1999 9.20668 13.0325 8.74497 12.8342C6.88554 12.0371 3.86297 13.3893 3.83297 13.4033L3.59668 12.8831C3.72954 12.8228 6.87868 11.4128 8.97039 12.3091C9.43725 12.5091 9.81125 12.6782 10.1247 12.8199C11.1304 13.2753 11.4695 13.4288 12.2853 13.4288H13.1424C13.5213 13.4288 13.8846 13.5793 14.1525 13.8472C14.4205 14.1151 14.571 14.4785 14.571 14.8573C14.571 15.2362 14.4205 15.5996 14.1525 15.8675C13.8846 16.1354 13.5213 16.2859 13.1424 16.2859Z" fill="#282828"/>
<path d="M14.8577 10.2857C13.8405 10.2857 12.8462 9.98409 12.0005 9.41899C11.1547 8.85388 10.4956 8.05068 10.1063 7.11095C9.71707 6.17121 9.61523 5.13715 9.81366 4.13954C10.0121 3.14192 10.5019 2.22555 11.2212 1.50631C11.9404 0.787069 12.8568 0.297259 13.8544 0.0988209C14.852 -0.0996174 15.8861 0.00222829 16.8258 0.391479C17.7655 0.78073 18.5687 1.4399 19.1338 2.28564C19.6989 3.13138 20.0006 4.1257 20.0006 5.14286C19.999 6.50637 19.4567 7.81359 18.4926 8.77774C17.5284 9.74188 16.2212 10.2842 14.8577 10.2857ZM14.8577 0.571431C13.9536 0.571431 13.0697 0.83954 12.318 1.34186C11.5662 1.84417 10.9803 2.55813 10.6343 3.39345C10.2883 4.22877 10.1977 5.14793 10.3741 6.0347C10.5505 6.92147 10.9859 7.73602 11.6252 8.37535C12.2645 9.01467 13.0791 9.45006 13.9659 9.62645C14.8526 9.80284 15.7718 9.71231 16.6071 9.36631C17.4424 9.02031 18.1564 8.43438 18.6587 7.68261C19.161 6.93084 19.4291 6.047 19.4291 5.14286C19.4278 3.93086 18.9457 2.76889 18.0887 1.91187C17.2317 1.05486 16.0697 0.572792 14.8577 0.571431Z" fill="#282828"/>
<path d="M14.8573 7.71463C14.4785 7.71418 14.1154 7.56353 13.8476 7.29571C13.5798 7.0279 13.4292 6.6648 13.4287 6.28606H14.0001C14.0001 6.51339 14.0904 6.73141 14.2512 6.89215C14.4119 7.0529 14.63 7.14321 14.8573 7.14321C15.0846 7.14321 15.3026 7.0529 15.4634 6.89215C15.6241 6.73141 15.7144 6.51339 15.7144 6.28606C15.7144 5.98978 15.6093 5.62378 14.7884 5.42063C13.9244 5.20635 13.4287 4.68892 13.4287 4.00035C13.4287 3.62147 13.5792 3.25811 13.8471 2.9902C14.115 2.72229 14.4784 2.57178 14.8573 2.57178C15.2362 2.57178 15.5995 2.72229 15.8674 2.9902C16.1353 3.25811 16.2859 3.62147 16.2859 4.00035H15.7144C15.7144 3.77302 15.6241 3.555 15.4634 3.39426C15.3026 3.23351 15.0846 3.14321 14.8573 3.14321C14.63 3.14321 14.4119 3.23351 14.2512 3.39426C14.0904 3.555 14.0001 3.77302 14.0001 4.00035C14.0001 4.55378 14.5801 4.78006 14.9261 4.86578C15.8287 5.08949 16.2859 5.56721 16.2859 6.28606C16.2854 6.6648 16.1347 7.0279 15.8669 7.29571C15.5991 7.56353 15.236 7.71418 14.8573 7.71463Z" fill="#282828"/>
<path d="M14.5713 2H15.1427V2.85714H14.5713V2Z" fill="#282828"/>
<path d="M14.5713 7.42822H15.1427V8.28537H14.5713V7.42822Z" fill="#282828"/>
</svg>
