<svg width="24" height="25" viewBox="0 0 24 25" fill="none" xmlns="http://www.w3.org/2000/svg">
<path fill-rule="evenodd" clip-rule="evenodd" d="M3.96867 14.4157L13.6592 4.91662C14.906 3.69446 16.9283 3.69446 18.175 4.91662L19.4694 6.1854C20.7162 7.40755 20.7162 9.38985 19.4694 10.612L9.74061 20.1486C9.1843 20.6939 8.43007 20.9999 7.64282 20.9999H3.65854C3.28841 20.9999 2.99098 20.701 3.00021 20.3383L3.10043 16.3975C3.12036 15.6526 3.43127 14.9425 3.96867 14.4157ZM18.5381 7.09831L17.2437 5.82953C16.5113 5.11156 15.323 5.11156 14.5905 5.82953L13.8382 6.56697L17.7862 10.4361L18.5381 9.69909C19.2705 8.98112 19.2705 7.81628 18.5381 7.09831ZM4.89998 15.3287L12.9069 7.47989L16.8549 11.349L8.8093 19.2357L8.70228 19.3317C8.4067 19.5745 8.03222 19.7088 7.64282 19.7088L4.33345 19.7084L4.41707 16.4305C4.42814 16.0169 4.60126 15.6215 4.89998 15.3287ZM21 20.3545C21 19.998 20.7052 19.7089 20.3415 19.7089H13.471L13.3816 19.7148C13.0602 19.7576 12.8125 20.0277 12.8125 20.3545C12.8125 20.711 13.1073 21 13.471 21H20.3415L20.4308 20.9941C20.7523 20.9514 21 20.6813 21 20.3545Z" fill="#282828" fill-opacity="0.5"/>
</svg>
