<svg width="16" height="19" viewBox="0 0 16 19" fill="none" xmlns="http://www.w3.org/2000/svg">
<path d="M15 18.9999H1C0.447715 18.9999 0 18.5521 0 17.9999V8.35686C0.0154912 8.1118 0.119639 7.88076 0.293 7.70686L7.293 0.706861C7.48057 0.519084 7.73509 0.413574 8.0005 0.413574C8.26591 0.413574 8.52043 0.519084 8.708 0.706861L15.708 7.70686C15.8957 7.89414 16.0009 8.14868 16 8.41386V17.9999C16 18.5521 15.5523 18.9999 15 18.9999ZM8 2.82786L2 8.82786V16.9999H14V8.82786L8 2.82786ZM8 14.9989C7.792 14.8139 7.557 14.6209 7.308 14.4169L7.261 14.3789C6.104 13.4349 4.661 12.2599 4.661 10.7989C4.66116 10.3148 4.85626 9.85122 5.20228 9.51273C5.5483 9.17424 6.01606 8.98937 6.5 8.99986C7.0722 8.99832 7.61787 9.24096 8 9.66686C8.38221 9.24107 8.92783 8.99845 9.5 8.99986C9.98343 8.99046 10.4503 9.17594 10.7955 9.51453C11.1407 9.85312 11.3351 10.3163 11.335 10.7999C11.335 12.2659 9.883 13.4489 8.717 14.3999L8.66 14.4469C8.423 14.6409 8.199 14.8239 7.999 15.0009L8 14.9989Z" fill="#777777"/>
</svg>
