<svg width="20" height="20" viewBox="0 0 20 20" fill="none" xmlns="http://www.w3.org/2000/svg">
<path fill-rule="evenodd" clip-rule="evenodd" d="M14.335 0H5.66598C2.2684 0 0.000976562 2.4326 0.000976562 5.916V14.084C0.000976562 17.5707 2.26235 20 5.66598 20H14.334C17.7386 20 20.001 17.5707 20.001 14.084V5.916C20.001 2.4295 17.7388 0 14.335 0ZM5.66598 1.5H14.335C16.8855 1.5 18.501 3.23496 18.501 5.916V14.084C18.501 16.7652 16.8854 18.5 14.334 18.5H5.66598C3.11574 18.5 1.50098 16.7653 1.50098 14.084V5.916C1.50098 3.23837 3.12132 1.5 5.66598 1.5ZM10.0003 5.4541C10.4145 5.4541 10.7503 5.78989 10.7503 6.2041C10.7503 6.5838 10.4681 6.89759 10.102 6.94725L9.99028 6.9541C9.57606 6.9541 9.24028 6.61831 9.24028 6.2041C9.24028 5.8244 9.52243 5.51061 9.88851 5.46095L10.0003 5.4541ZM9.99028 8.6269C10.37 8.6269 10.6838 8.90905 10.7334 9.27513L10.7403 9.3769V13.7959C10.7403 14.2101 10.4045 14.5459 9.99028 14.5459C9.61058 14.5459 9.29679 14.2637 9.24712 13.8977L9.24028 13.7959V9.3769C9.24028 8.96269 9.57606 8.6269 9.99028 8.6269Z" fill="#777777"/>
</svg>
