<svg width="24" height="24" viewBox="0 0 24 24" fill="none" xmlns="http://www.w3.org/2000/svg">
<path d="M12.3999 22.3999C10.4221 22.3999 8.48869 21.8134 6.8442 20.7146C5.19971 19.6158 3.91799 18.054 3.16111 16.2267C2.40424 14.3995 2.2062 12.3888 2.59205 10.449C2.97791 8.50919 3.93031 6.72736 5.32884 5.32884C6.72736 3.93031 8.50919 2.97791 10.449 2.59205C12.3888 2.2062 14.3995 2.40424 16.2267 3.16111C18.054 3.91799 19.6158 5.19971 20.7146 6.8442C21.8134 8.48869 22.3999 10.4221 22.3999 12.3999C22.3999 15.0521 21.3463 17.5956 19.471 19.471C17.5956 21.3463 15.0521 22.3999 12.3999 22.3999ZM12.3999 4.06657C10.7517 4.06657 9.14056 4.55531 7.77015 5.47099C6.39974 6.38667 5.33164 7.68816 4.70091 9.21088C4.07018 10.7336 3.90515 12.4091 4.2267 14.0257C4.54824 15.6422 5.34191 17.127 6.50735 18.2925C7.67279 19.4579 9.15764 20.2516 10.7742 20.5731C12.3907 20.8947 14.0662 20.7296 15.5889 20.0989C17.1116 19.4682 18.4131 18.4001 19.3288 17.0297C20.2445 15.6592 20.7332 14.0481 20.7332 12.3999C20.7332 10.1898 19.8553 8.07015 18.2925 6.50735C16.7297 4.94455 14.61 4.06657 12.3999 4.06657Z" fill="#979797"/>
<path d="M16 16.4002C15.8017 16.3997 15.6107 16.3256 15.464 16.1922L11.464 12.5922C11.3811 12.5174 11.3148 12.4261 11.2693 12.3241C11.2238 12.2222 11.2002 12.1118 11.2 12.0002V8.0002C11.2 7.78802 11.2842 7.58454 11.4343 7.43451C11.5843 7.28448 11.7878 7.2002 12 7.2002C12.2121 7.2002 12.4156 7.28448 12.5656 7.43451C12.7157 7.58454 12.8 7.78802 12.8 8.0002V11.6402L16.536 15.0002C16.6583 15.1081 16.7447 15.2507 16.7837 15.4091C16.8226 15.5675 16.8123 15.734 16.7539 15.8863C16.6956 16.0386 16.5922 16.1694 16.4574 16.2613C16.3226 16.3531 16.163 16.4016 16 16.4002Z" fill="#979797"/>
</svg>
