<svg width="93" height="98" viewBox="0 0 93 98" fill="none" xmlns="http://www.w3.org/2000/svg">
<path d="M89.87 85.6099C89.8713 87.6082 89.1634 89.5422 87.8724 91.0676C86.5814 92.5929 84.7911 93.6108 82.82 93.9399C58.5581 98.0332 33.7819 98.0332 9.52002 93.9399C7.55724 93.602 5.77746 92.5802 4.49615 91.0554C3.21485 89.5307 2.51478 87.6015 2.52002 85.6099V4.60986H89.91L89.87 85.6099Z" fill="#EB5757"/>
<path opacity="0.3" d="M2.47 6.06982V17.4398C7.73 19.3898 25 20.8198 46.17 20.8198C67.34 20.8198 84.64 19.3898 89.87 17.4398V6.06982H2.47Z" fill="#777777"/>
<path d="M91.51 14.7401C91.51 17.3101 71.67 19.3901 46.17 19.3901C20.67 19.3901 0.830017 17.3101 0.830017 14.7401L0 4.64014H92.39L91.51 14.7401Z" fill="#EB5757"/>
<path d="M46.17 9.28C71.669 9.28 92.34 7.20259 92.34 4.63998C92.34 2.07738 71.669 0 46.17 0C20.671 0 0 2.07738 0 4.63998C0 7.20259 20.671 9.28 46.17 9.28Z" fill="#EB5757"/>
<path opacity="0.3" d="M46.17 9.28C71.669 9.28 92.34 7.20259 92.34 4.63998C92.34 2.07738 71.669 0 46.17 0C20.671 0 0 2.07738 0 4.63998C0 7.20259 20.671 9.28 46.17 9.28Z" fill="#777777"/>
<path opacity="0.2" d="M14.19 79.9099C13.2917 79.9073 12.431 79.5493 11.7958 78.9141C11.1607 78.2789 10.8027 77.4182 10.8 76.5199V30.0799C10.8027 29.1817 11.1607 28.3209 11.7958 27.6858C12.431 27.0506 13.2917 26.6926 14.19 26.6899C15.0875 26.6952 15.9467 27.054 16.5813 27.6886C17.2159 28.3232 17.5748 29.1825 17.58 30.0799V76.5199C17.5748 77.4174 17.2159 78.2766 16.5813 78.9112C15.9467 79.5458 15.0875 79.9047 14.19 79.9099Z" fill="#777777"/>
<path opacity="0.2" d="M78.16 79.9099C77.2617 79.9073 76.401 79.5493 75.7658 78.9141C75.1307 78.2789 74.7727 77.4182 74.77 76.5199V30.0799C74.7727 29.1817 75.1307 28.3209 75.7658 27.6858C76.401 27.0506 77.2617 26.6926 78.16 26.6899C79.0575 26.6952 79.9167 27.054 80.5513 27.6886C81.1859 28.3232 81.5448 29.1825 81.55 30.0799V76.5199C81.5448 77.4174 81.1859 78.2766 80.5513 78.9112C79.9167 79.5458 79.0575 79.9047 78.16 79.9099Z" fill="#777777"/>
<path opacity="0.2" d="M56.83 79.9099C55.9326 79.9047 55.0733 79.5458 54.4387 78.9112C53.8041 78.2766 53.4453 77.4174 53.44 76.5199V30.0799C53.4453 29.1825 53.8041 28.3232 54.4387 27.6886C55.0733 27.054 55.9326 26.6952 56.83 26.6899C57.7283 26.6926 58.589 27.0506 59.2242 27.6858C59.8594 28.3209 60.2174 29.1817 60.22 30.0799V76.5199C60.2174 77.4182 59.8594 78.2789 59.2242 78.9141C58.589 79.5493 57.7283 79.9073 56.83 79.9099Z" fill="#777777"/>
<path opacity="0.2" d="M35.51 79.9099C34.6125 79.9047 33.7533 79.5458 33.1187 78.9112C32.4841 78.2766 32.1253 77.4174 32.12 76.5199V30.0799C32.1253 29.1825 32.4841 28.3232 33.1187 27.6886C33.7533 27.054 34.6125 26.6952 35.51 26.6899C36.4083 26.6926 37.269 27.0506 37.9042 27.6858C38.5394 28.3209 38.8974 29.1817 38.9 30.0799V76.5199C38.8974 77.4182 38.5394 78.2789 37.9042 78.9141C37.269 79.5493 36.4083 79.9073 35.51 79.9099Z" fill="#777777"/>
</svg>
