<svg width="93" height="167" viewBox="0 0 93 167" fill="none" xmlns="http://www.w3.org/2000/svg">
<path d="M47.3959 81.8086L43.9993 83.5906C43.9993 83.5906 40.2787 85.2106 37.8487 86.5012C35.4187 87.7918 23.4469 97.0204 23.4469 97.0204L21.0223 97.1824L19.5643 98.1544C19.5643 98.1544 17.1343 98.6404 17.1343 99.1264C17.1343 99.6124 17.6203 99.769 18.1063 99.769C18.8375 99.5846 19.5444 99.3146 20.2123 98.9644C20.2123 98.9644 18.5653 101.373 19.2133 101.373C20.1515 101.47 21.0836 101.619 22.0051 101.821C23.0769 101.621 24.1584 101.477 25.2451 101.389C26.0551 101.389 27.9937 97.0204 27.9937 97.0204C27.9937 97.0204 41.9095 91.5178 43.6915 90.2218C45.4735 88.9258 50.6467 85.6912 50.6467 85.6912L47.3959 81.8086Z" fill="white" stroke="#777777" stroke-linecap="round" stroke-linejoin="round"/>
<path d="M60.4586 68.5137L45.29 82.2945L49.664 87.4731L58.0772 84.2385L60.9878 68.7027L60.4586 68.5137Z" fill="#FFD200" stroke="#777777" stroke-linecap="round" stroke-linejoin="round"/>
<path d="M47.315 80.4585L45.29 82.2945L49.664 87.4731L52.2722 86.4687L47.315 80.4585Z" fill="#777777" stroke="#777777" stroke-linecap="round" stroke-linejoin="round"/>
<path d="M86.9346 154.746C86.9346 154.746 91.7514 159.758 92.2428 162.215C92.7342 164.672 91.557 166.837 89.5914 166.243C87.6258 165.649 85.8546 159.563 85.3632 158.483C84.8718 157.403 84.2832 156.221 84.2832 156.221C84.2832 156.221 85.7574 154.255 86.9346 154.746Z" fill="#FFD200" stroke="#777777" stroke-linecap="round" stroke-linejoin="round"/>
<path d="M92.286 162.479C92.6424 164.823 91.4814 166.799 89.586 166.259C88.9002 166.059 88.2414 165.179 87.6528 164.099C88.938 162.02 91.0062 162.133 92.286 162.479Z" fill="white" stroke="#777777" stroke-linecap="round" stroke-linejoin="round"/>
<path d="M86.9834 162.679C88.0634 164.153 89.435 165.735 90.4718 165.46C91.5086 165.184 92.054 163.235 92.243 162.22C92.729 164.671 91.5518 166.821 89.5916 166.232C88.6304 165.957 87.7232 164.364 86.9834 162.679Z" fill="white" stroke="#777777" stroke-linecap="round" stroke-linejoin="round"/>
<path d="M85.952 157.5C85.952 157.5 88.112 156.318 88.2146 156.712C88.3172 157.106 86.1518 158.186 85.8548 158.186C85.5578 158.186 85.3634 158.089 85.952 157.5Z" fill="white" stroke="#777777" stroke-width="0.5" stroke-linecap="round" stroke-linejoin="round"/>
<path d="M86.4432 158.186C86.4432 158.186 88.6032 157.009 88.7058 157.403C88.8084 157.797 86.643 158.877 86.346 158.877C86.049 158.877 85.8546 158.78 86.4432 158.186Z" fill="white" stroke="#777777" stroke-width="0.5" stroke-linecap="round" stroke-linejoin="round"/>
<path d="M86.9344 158.877C86.9344 158.877 89.0944 157.695 89.197 158.089C89.2996 158.483 87.1342 159.563 86.8372 159.563C86.5402 159.563 86.3458 159.466 86.9344 158.877Z" fill="white" stroke="#777777" stroke-width="0.5" stroke-linecap="round" stroke-linejoin="round"/>
<path d="M87.4261 159.563C87.4261 159.563 89.5861 158.386 89.6887 158.775C89.7913 159.163 87.6259 160.249 87.3289 160.249C87.0319 160.249 86.8375 160.152 87.4261 159.563Z" fill="white" stroke="#777777" stroke-width="0.5" stroke-linecap="round" stroke-linejoin="round"/>
<path d="M48.125 159.255C48.125 159.255 50.0042 161.874 50.1716 163.359C50.339 164.844 49.0916 164.882 47.504 164.715C45.9164 164.547 44.021 165.719 41.7854 165.66C39.5498 165.6 36.9632 164.623 38.2052 163.559C39.4472 162.495 42.6872 161.621 43.3892 161.01C43.8082 160.644 44.2016 160.248 44.5664 159.828L48.125 159.255Z" fill="#FFD200" stroke="#777777" stroke-linecap="round" stroke-linejoin="round"/>
<path d="M38.2052 163.559C38.6417 163.216 39.1209 162.931 39.6308 162.711C40.2018 163.017 40.7042 163.437 41.1072 163.944C41.5102 164.451 41.8053 165.035 41.9744 165.66H41.78C39.5444 165.6 36.9632 164.623 38.2052 163.559Z" fill="white" stroke="#777777" stroke-linecap="round" stroke-linejoin="round"/>
<path d="M43.5941 160.665C43.5941 160.665 45.8999 161.869 45.3167 162.106C44.7335 162.344 42.9839 160.994 43.5941 160.665Z" fill="white" stroke="#777777" stroke-width="0.5" stroke-linecap="round" stroke-linejoin="round"/>
<path d="M42.6981 160.908C42.6981 160.908 45.0039 162.112 44.4207 162.35C43.8375 162.587 42.0879 161.237 42.6981 160.908Z" fill="white" stroke="#777777" stroke-width="0.5" stroke-linecap="round" stroke-linejoin="round"/>
<path d="M42.1796 161.264C42.1796 161.264 44.4854 162.468 43.9022 162.706C43.319 162.944 41.5694 161.594 42.1796 161.264Z" fill="white" stroke="#777777" stroke-width="0.5" stroke-linecap="round" stroke-linejoin="round"/>
<path d="M41.2402 161.696C41.2402 161.696 43.546 162.9 42.9628 163.138C42.3796 163.375 40.6192 162.02 41.2402 161.696Z" fill="white" stroke="#777777" stroke-width="0.5" stroke-linecap="round" stroke-linejoin="round"/>
<path d="M37.9458 163.888C39.5621 164.84 41.4854 165.125 43.308 164.682C45.0003 164.31 46.7192 164.072 48.4488 163.969C49.0373 163.952 49.6206 163.854 50.1822 163.678C50.139 164.85 48.9726 164.871 47.4822 164.715C45.8946 164.542 43.9992 165.719 41.7636 165.66C39.7764 165.606 37.5084 164.817 37.9458 163.888Z" fill="white" stroke="#777777" stroke-linecap="round" stroke-linejoin="round"/>
<path d="M71.739 101.54C71.739 101.54 70.605 117.329 71.2908 121.158C71.9766 124.987 73.6668 136.386 73.6668 136.386C73.6668 136.386 76.2264 138.254 78.7806 142.38C81.3348 146.506 86.9346 154.762 86.9346 154.762C86.9346 154.762 87.1344 156.236 85.3632 156.728C85.3632 156.728 84.4776 157.122 83.9862 156.728C83.4948 156.334 66.7062 140.809 64.7244 137.569C62.7426 134.329 60.1074 114.392 60.1074 114.392L57.5532 113.9L46.7532 134.539L48.6324 159.628C48.6324 159.628 48.7782 160.492 47.5524 160.843C46.3266 161.194 45.3384 161.318 44.604 160.686C43.8696 160.054 38.1834 132.579 38.664 131.596C39.1446 130.613 50.0418 103.603 50.0418 103.603L50.922 101.345C50.922 101.345 61.2414 102.523 65.8584 101.637C70.4754 100.751 71.3502 100.049 71.739 101.54Z" fill="#777777" stroke="#777777" stroke-linecap="round" stroke-linejoin="round"/>
<path d="M57.5535 113.884L51.9482 112.216" stroke="white" stroke-linecap="round" stroke-linejoin="round"/>
<path d="M56.959 114.181L49.2964 113.296" stroke="white" stroke-linecap="round" stroke-linejoin="round"/>
<path d="M69.9789 104.596C69.9789 104.596 65.8318 107.242 69.9789 109.008" stroke="white" stroke-linecap="round" stroke-linejoin="round"/>
<path d="M58.2391 105.676L57.6019 108.225L55.8955 109.931L58.0231 111.843" stroke="white" stroke-linecap="round" stroke-linejoin="round"/>
<path d="M82.5336 75.469C78.7536 72.4018 74.061 68.6974 74.061 68.6974C74.061 68.6974 64.1088 68.4706 60.4584 68.5138L55.3284 84.8866C55.3284 84.8866 50.6142 101.195 50.8086 101.886C51.003 102.577 54.351 104.143 61.8192 105.029C69.2874 105.914 72.4302 102.771 72.6192 101.789C72.7006 100.898 72.635 100.001 72.4248 99.1318L74.979 94.612L83.43 80.7124C83.9398 79.8777 84.1299 78.8866 83.9651 77.9226C83.8002 76.9585 83.2917 76.0869 82.5336 75.469Z" fill="#FF844C" stroke="#777777" stroke-linecap="round" stroke-linejoin="round"/>
<path d="M79.58 73.0764C76.6856 70.7544 74.0774 68.697 74.0774 68.697C74.0774 68.697 70.7727 68.6214 67.2789 68.5674C66.3933 70.587 64.865 74.7126 66.1232 76.7538C67.6568 79.2702 72.7275 80.0208 79.58 73.0764Z" fill="#777777" stroke="#777777" stroke-linecap="round" stroke-linejoin="round"/>
<path d="M75.0815 51.8602C75.0815 51.8602 72.2357 52.6486 71.0531 54.4144C69.8705 56.1802 66.4361 66.505 66.5333 67.3744C66.6305 68.2438 71.0531 67.3744 71.0531 67.3744C71.0531 67.3744 68.0075 73.7626 68.0075 74.8426C68.0075 75.9226 69.3845 76.5166 71.1503 76.1224C72.9161 75.7282 78.9479 65.3602 78.9479 65.3602C78.9479 65.3602 80.7353 67.4338 81.8639 66.721C83.1599 65.9056 82.7495 64.264 81.7667 64.264C80.7839 64.264 84.5153 60.2356 83.2409 57.5842C81.9665 54.9328 76.2641 50.98 75.0815 51.8602Z" fill="white" stroke="#777777" stroke-linecap="round" stroke-linejoin="round"/>
<path d="M74.0016 48.7227C74.0016 48.7227 68.499 48.7227 68.202 51.3741C67.905 54.0255 70.7616 55.2081 73.9044 54.7167C77.0472 54.2253 79.8984 54.4197 80.2926 54.9111C80.6868 55.4025 76.4586 56.3853 77.4414 57.0711C78.0127 57.4813 78.7041 57.6902 79.407 57.6651C79.407 57.6651 78.03 58.0539 78.1272 59.0367C78.2244 60.0195 79.083 64.3611 79.7472 64.3611C80.4114 64.3611 81.7452 64.2747 81.7452 64.2747C82.9892 63.6489 84.1192 62.8183 85.0878 61.8177C86.562 60.2463 86.9508 56.9037 85.0878 54.9435C83.2248 52.9833 81.7452 51.0771 80.271 49.5057C78.7968 47.9343 77.4198 46.2657 74.4714 45.8715C71.523 45.4773 69.9732 46.6545 74.0016 48.7227Z" fill="#777777" stroke="#777777" stroke-linecap="round" stroke-linejoin="round"/>
<path d="M85.4766 58.8799C85.5781 59.4556 85.5981 60.0428 85.536 60.6241" stroke="white" stroke-linecap="round" stroke-linejoin="round"/>
<path d="M75.3787 51.8223C75.3787 51.8223 69.3469 52.4109 71.5987 53.5611C73.8505 54.7113 77.3659 52.5567 81.7561 54.2955C82.4967 54.563 83.173 54.9828 83.7413 55.5279C84.3096 56.0729 84.7573 56.7311 85.0555 57.4599" stroke="white" stroke-linecap="round" stroke-linejoin="round"/>
<path d="M79.04 56.4014C79.04 56.4014 83.1602 58.4156 83.7056 61.3424" stroke="white" stroke-linecap="round" stroke-linejoin="round"/>
<path d="M71.0532 67.3906C71.0532 67.3906 75.7728 67.099 77.0472 66.019" stroke="#777777" stroke-linecap="round" stroke-linejoin="round"/>
<path d="M69.5791 63.4594C69.5791 63.4594 73.0189 64.4422 74.0017 62.3794" stroke="#777777" stroke-linecap="round" stroke-linejoin="round"/>
<path d="M73.4131 61.9849L74.8873 62.5789" stroke="#777777" stroke-linecap="round" stroke-linejoin="round"/>
<path d="M70.6589 58.9395C70.6589 58.9395 67.6133 59.3337 67.6133 59.8251C67.6133 60.3165 69.5789 61.6935 69.5789 61.6935" fill="white"/>
<path d="M70.6589 58.9395C70.6589 58.9395 67.6133 59.3337 67.6133 59.8251C67.6133 60.3165 69.5789 61.6935 69.5789 61.6935" stroke="#777777" stroke-linecap="round" stroke-linejoin="round"/>
<path d="M71.0478 57.9944C70.9074 58.421 70.6212 58.7072 70.4052 58.637C70.1892 58.5668 70.1352 58.1672 70.281 57.7406C70.4268 57.314 70.7076 57.0278 70.9236 57.098C71.1396 57.1682 71.1936 57.5732 71.0478 57.9944Z" fill="#777777"/>
<path d="M73.6399 59.3067C73.4941 59.7333 73.2079 60.0195 72.9973 59.9493C72.7868 59.8791 72.7274 59.4741 72.8678 59.0529C73.0082 58.6317 73.2997 58.3401 73.5103 58.4103C73.7209 58.4805 73.7749 58.8801 73.6399 59.3067Z" fill="#777777"/>
<path d="M73.7749 56.5146C73.7749 56.5146 75.2653 56.6496 75.1249 58.6746L73.7749 56.5146Z" fill="#777777" stroke="#777777" stroke-linecap="round" stroke-linejoin="round"/>
<path d="M72.4247 55.5697C72.4247 55.5697 71.6093 54.4897 70.5293 55.9747L72.4247 55.5697Z" fill="#777777" stroke="#777777" stroke-linecap="round" stroke-linejoin="round"/>
<path d="M45.3061 19.6276L31.0825 1.72656L16.8643 19.6276H22.4263V46.579H39.7441V19.6276H45.3061Z" fill="#777777" stroke="#777777" stroke-linecap="round" stroke-linejoin="round"/>
<path d="M45.3061 18.4664L31.0825 0.56543L16.8643 18.4664H22.4263V45.4178H39.7441V18.4664H45.3061Z" fill="white" stroke="#777777" stroke-linecap="round" stroke-linejoin="round"/>
<path d="M58.8223 42.3774H0.98291V100.217H58.8223V42.3774Z" fill="white" stroke="#777777" stroke-linecap="round" stroke-linejoin="round"/>
<path d="M56.1329 45.0669H3.67188V97.5279H56.1329V45.0669Z" fill="#777777" stroke="#777777" stroke-linecap="round" stroke-linejoin="round"/>
<path d="M43.9667 62.7302L31.7303 75.5174L22.2047 72.8498C21.7353 72.719 21.2425 72.6957 20.7628 72.7817C20.2832 72.8677 19.8291 73.0608 19.4345 73.3466L3.67188 84.8V97.5494H56.1329V70.5494L48.6269 62.7248C48.3244 62.4124 47.962 62.1641 47.5615 61.9947C47.161 61.8253 46.7305 61.7383 46.2956 61.7388C45.8608 61.7393 45.4305 61.8273 45.0303 61.9976C44.6302 62.168 44.2685 62.4171 43.9667 62.7302Z" fill="white" stroke="#777777" stroke-linecap="round" stroke-linejoin="round"/>
<path d="M29.2474 61.6937C30.636 58.3113 29.0197 54.4437 25.6373 53.0551C22.2549 51.6665 18.3873 53.2828 16.9987 56.6652C15.6101 60.0476 17.2264 63.9152 20.6088 65.3038C23.9912 66.6924 27.8588 65.0761 29.2474 61.6937Z" fill="white" stroke="#777777" stroke-linecap="round" stroke-linejoin="round"/>
<path d="M75.3085 77.9691L60.8527 92.8299L38.8207 98.8995C38.8207 98.8995 36.8551 96.6153 35.4403 96.5991C34.0255 96.5829 29.4679 98.2191 29.4679 98.2191C29.4679 98.2191 28.8901 99.6339 30.0079 99.6447C31.1572 99.5638 32.2973 99.3831 33.4153 99.1047L27.1675 100.185C27.2428 100.66 27.4844 101.094 27.8492 101.408C28.214 101.723 28.6785 101.898 29.1601 101.902H31.9735L36.7849 102.512L41.3371 101.135C41.3371 101.135 62.9047 98.7861 64.0441 98.5107C65.1835 98.2353 83.4841 82.5267 83.4841 82.5267C83.4841 82.5267 85.5523 80.7069 84.7639 78.5955C83.9755 76.4841 79.9417 74.9883 79.9417 74.9883" fill="white"/>
<path d="M75.3085 77.9691L60.8527 92.8299L38.8207 98.8995C38.8207 98.8995 36.8551 96.6153 35.4403 96.5991C34.0255 96.5829 29.4679 98.2191 29.4679 98.2191C29.4679 98.2191 28.8901 99.6339 30.0079 99.6447C31.1572 99.5638 32.2973 99.3831 33.4153 99.1047L27.1675 100.185C27.2428 100.66 27.4844 101.094 27.8492 101.408C28.214 101.723 28.6785 101.898 29.1601 101.902H31.9735L36.7849 102.512L41.3371 101.135C41.3371 101.135 62.9047 98.7861 64.0441 98.5107C65.1835 98.2353 83.4841 82.5267 83.4841 82.5267C83.4841 82.5267 85.5523 80.7069 84.7639 78.5955C83.9755 76.4841 79.9417 74.9883 79.9417 74.9883" stroke="#777777" stroke-linecap="round" stroke-linejoin="round"/>
<path d="M72.7006 79.519L61.6792 90.5728L69.8602 96.4749L84.073 83.0884C84.7667 82.4388 85.2173 81.5714 85.3499 80.6303C85.4825 79.6893 85.2892 78.7312 84.802 77.9152L84.7534 77.8396C83.7341 76.2233 82.2926 74.9162 80.5846 74.0596" fill="#FF844C"/>
<path d="M72.7006 79.519L61.6792 90.5728L69.8602 96.4749L84.073 83.0884C84.7667 82.4388 85.2173 81.5714 85.3499 80.6303C85.4825 79.6893 85.2892 78.7312 84.802 77.9152L84.7534 77.8396C83.7341 76.2233 82.2926 74.9162 80.5846 74.0596" stroke="#777777" stroke-linecap="round" stroke-linejoin="round"/>
<path d="M69.8818 96.4749L71.8042 94.6605L63.58 88.6665L61.6792 90.5727L69.8818 96.4749Z" fill="#777777" stroke="#777777" stroke-linecap="round" stroke-linejoin="round"/>
<path d="M17.1343 99.1261L19.2133 101.373L21.2275 101.594L18.1009 98.9155L17.1343 99.1261Z" fill="white" stroke="#777777" stroke-linecap="round" stroke-linejoin="round"/>
<path d="M21.0439 99.1261L23.1229 101.373L25.1317 101.594L22.0051 98.9155L21.0439 99.1261Z" fill="white" stroke="#777777" stroke-linecap="round" stroke-linejoin="round"/>
<path d="M21.2274 101.594L18.8784 98.5811H20.331L23.2362 101.594L22.005 101.821L21.2274 101.594Z" fill="white" stroke="#777777" stroke-linecap="round" stroke-linejoin="round"/>
<path d="M16.3135 99.3636L17.3179 101.259L19.2133 101.372L17.1343 99.126L16.3135 99.3636Z" fill="white" stroke="#777777" stroke-linecap="round" stroke-linejoin="round"/>
</svg>
